<?xml version="1.0" encoding="utf-8" standalone="no"?>
<!DOCTYPE svg PUBLIC "-//W3C//DTD SVG 1.1//EN"
  "http://www.w3.org/Graphics/SVG/1.1/DTD/svg11.dtd">
<svg xmlns:xlink="http://www.w3.org/1999/xlink" width="460.8pt" height="345.6pt" viewBox="0 0 460.8 345.6" xmlns="http://www.w3.org/2000/svg" version="1.1">
 <metadata>
  <rdf:RDF xmlns:dc="http://purl.org/dc/elements/1.1/" xmlns:cc="http://creativecommons.org/ns#" xmlns:rdf="http://www.w3.org/1999/02/22-rdf-syntax-ns#">
   <cc:Work>
    <dc:type rdf:resource="http://purl.org/dc/dcmitype/StillImage"/>
    <dc:date>2023-06-05T00:35:31.727800</dc:date>
    <dc:format>image/svg+xml</dc:format>
    <dc:creator>
     <cc:Agent>
      <dc:title>Matplotlib v3.7.1, https://matplotlib.org/</dc:title>
     </cc:Agent>
    </dc:creator>
   </cc:Work>
  </rdf:RDF>
 </metadata>
 <defs>
  <style type="text/css">*{stroke-linejoin: round; stroke-linecap: butt}</style>
 </defs>
 <g id="figure_1">
  <g id="patch_1">
   <path d="M 0 345.6 
L 460.8 345.6 
L 460.8 0 
L 0 0 
z
" style="fill: #ffffff"/>
  </g>
  <g id="axes_1">
   <g id="matplotlib.axis_1">
    <g id="xtick_1">
     <g id="line2d_1">
      <defs>
       <path id="mda5e5ff4d6" d="M 0 0 
L 0 3.5 
" style="stroke: #262626; stroke-width: 0.8"/>
      </defs>
      <g>
       <use xlink:href="#mda5e5ff4d6" x="73.832727" y="307.584" style="fill: #262626; stroke: #262626; stroke-width: 0.8"/>
      </g>
     </g>
     <g id="text_1">
      <!-- 2008 -->
      <g style="fill: #262626" transform="translate(58.562727 323.702125) scale(0.12 -0.12)">
       <defs>
        <path id="DejaVuSans-32" d="M 1228 531 
L 3431 531 
L 3431 0 
L 469 0 
L 469 531 
Q 828 903 1448 1529 
Q 2069 2156 2228 2338 
Q 2531 2678 2651 2914 
Q 2772 3150 2772 3378 
Q 2772 3750 2511 3984 
Q 2250 4219 1831 4219 
Q 1534 4219 1204 4116 
Q 875 4013 500 3803 
L 500 4441 
Q 881 4594 1212 4672 
Q 1544 4750 1819 4750 
Q 2544 4750 2975 4387 
Q 3406 4025 3406 3419 
Q 3406 3131 3298 2873 
Q 3191 2616 2906 2266 
Q 2828 2175 2409 1742 
Q 1991 1309 1228 531 
z
" transform="scale(0.015625)"/>
        <path id="DejaVuSans-30" d="M 2034 4250 
Q 1547 4250 1301 3770 
Q 1056 3291 1056 2328 
Q 1056 1369 1301 889 
Q 1547 409 2034 409 
Q 2525 409 2770 889 
Q 3016 1369 3016 2328 
Q 3016 3291 2770 3770 
Q 2525 4250 2034 4250 
z
M 2034 4750 
Q 2819 4750 3233 4129 
Q 3647 3509 3647 2328 
Q 3647 1150 3233 529 
Q 2819 -91 2034 -91 
Q 1250 -91 836 529 
Q 422 1150 422 2328 
Q 422 3509 836 4129 
Q 1250 4750 2034 4750 
z
" transform="scale(0.015625)"/>
        <path id="DejaVuSans-38" d="M 2034 2216 
Q 1584 2216 1326 1975 
Q 1069 1734 1069 1313 
Q 1069 891 1326 650 
Q 1584 409 2034 409 
Q 2484 409 2743 651 
Q 3003 894 3003 1313 
Q 3003 1734 2745 1975 
Q 2488 2216 2034 2216 
z
M 1403 2484 
Q 997 2584 770 2862 
Q 544 3141 544 3541 
Q 544 4100 942 4425 
Q 1341 4750 2034 4750 
Q 2731 4750 3128 4425 
Q 3525 4100 3525 3541 
Q 3525 3141 3298 2862 
Q 3072 2584 2669 2484 
Q 3125 2378 3379 2068 
Q 3634 1759 3634 1313 
Q 3634 634 3220 271 
Q 2806 -91 2034 -91 
Q 1263 -91 848 271 
Q 434 634 434 1313 
Q 434 1759 690 2068 
Q 947 2378 1403 2484 
z
M 1172 3481 
Q 1172 3119 1398 2916 
Q 1625 2713 2034 2713 
Q 2441 2713 2670 2916 
Q 2900 3119 2900 3481 
Q 2900 3844 2670 4047 
Q 2441 4250 2034 4250 
Q 1625 4250 1398 4047 
Q 1172 3844 1172 3481 
z
" transform="scale(0.015625)"/>
       </defs>
       <use xlink:href="#DejaVuSans-32"/>
       <use xlink:href="#DejaVuSans-30" x="63.623047"/>
       <use xlink:href="#DejaVuSans-30" x="127.246094"/>
       <use xlink:href="#DejaVuSans-38" x="190.869141"/>
      </g>
     </g>
    </g>
    <g id="xtick_2">
     <g id="line2d_2">
      <g>
       <use xlink:href="#mda5e5ff4d6" x="138.763636" y="307.584" style="fill: #262626; stroke: #262626; stroke-width: 0.8"/>
      </g>
     </g>
     <g id="text_2">
      <!-- 2010 -->
      <g style="fill: #262626" transform="translate(123.493636 323.702125) scale(0.12 -0.12)">
       <defs>
        <path id="DejaVuSans-31" d="M 794 531 
L 1825 531 
L 1825 4091 
L 703 3866 
L 703 4441 
L 1819 4666 
L 2450 4666 
L 2450 531 
L 3481 531 
L 3481 0 
L 794 0 
L 794 531 
z
" transform="scale(0.015625)"/>
       </defs>
       <use xlink:href="#DejaVuSans-32"/>
       <use xlink:href="#DejaVuSans-30" x="63.623047"/>
       <use xlink:href="#DejaVuSans-31" x="127.246094"/>
       <use xlink:href="#DejaVuSans-30" x="190.869141"/>
      </g>
     </g>
    </g>
    <g id="xtick_3">
     <g id="line2d_3">
      <g>
       <use xlink:href="#mda5e5ff4d6" x="203.694545" y="307.584" style="fill: #262626; stroke: #262626; stroke-width: 0.8"/>
      </g>
     </g>
     <g id="text_3">
      <!-- 2012 -->
      <g style="fill: #262626" transform="translate(188.424545 323.702125) scale(0.12 -0.12)">
       <use xlink:href="#DejaVuSans-32"/>
       <use xlink:href="#DejaVuSans-30" x="63.623047"/>
       <use xlink:href="#DejaVuSans-31" x="127.246094"/>
       <use xlink:href="#DejaVuSans-32" x="190.869141"/>
      </g>
     </g>
    </g>
    <g id="xtick_4">
     <g id="line2d_4">
      <g>
       <use xlink:href="#mda5e5ff4d6" x="268.625455" y="307.584" style="fill: #262626; stroke: #262626; stroke-width: 0.8"/>
      </g>
     </g>
     <g id="text_4">
      <!-- 2014 -->
      <g style="fill: #262626" transform="translate(253.355455 323.702125) scale(0.12 -0.12)">
       <defs>
        <path id="DejaVuSans-34" d="M 2419 4116 
L 825 1625 
L 2419 1625 
L 2419 4116 
z
M 2253 4666 
L 3047 4666 
L 3047 1625 
L 3713 1625 
L 3713 1100 
L 3047 1100 
L 3047 0 
L 2419 0 
L 2419 1100 
L 313 1100 
L 313 1709 
L 2253 4666 
z
" transform="scale(0.015625)"/>
       </defs>
       <use xlink:href="#DejaVuSans-32"/>
       <use xlink:href="#DejaVuSans-30" x="63.623047"/>
       <use xlink:href="#DejaVuSans-31" x="127.246094"/>
       <use xlink:href="#DejaVuSans-34" x="190.869141"/>
      </g>
     </g>
    </g>
    <g id="xtick_5">
     <g id="line2d_5">
      <g>
       <use xlink:href="#mda5e5ff4d6" x="333.556364" y="307.584" style="fill: #262626; stroke: #262626; stroke-width: 0.8"/>
      </g>
     </g>
     <g id="text_5">
      <!-- 2016 -->
      <g style="fill: #262626" transform="translate(318.286364 323.702125) scale(0.12 -0.12)">
       <defs>
        <path id="DejaVuSans-36" d="M 2113 2584 
Q 1688 2584 1439 2293 
Q 1191 2003 1191 1497 
Q 1191 994 1439 701 
Q 1688 409 2113 409 
Q 2538 409 2786 701 
Q 3034 994 3034 1497 
Q 3034 2003 2786 2293 
Q 2538 2584 2113 2584 
z
M 3366 4563 
L 3366 3988 
Q 3128 4100 2886 4159 
Q 2644 4219 2406 4219 
Q 1781 4219 1451 3797 
Q 1122 3375 1075 2522 
Q 1259 2794 1537 2939 
Q 1816 3084 2150 3084 
Q 2853 3084 3261 2657 
Q 3669 2231 3669 1497 
Q 3669 778 3244 343 
Q 2819 -91 2113 -91 
Q 1303 -91 875 529 
Q 447 1150 447 2328 
Q 447 3434 972 4092 
Q 1497 4750 2381 4750 
Q 2619 4750 2861 4703 
Q 3103 4656 3366 4563 
z
" transform="scale(0.015625)"/>
       </defs>
       <use xlink:href="#DejaVuSans-32"/>
       <use xlink:href="#DejaVuSans-30" x="63.623047"/>
       <use xlink:href="#DejaVuSans-31" x="127.246094"/>
       <use xlink:href="#DejaVuSans-36" x="190.869141"/>
      </g>
     </g>
    </g>
    <g id="xtick_6">
     <g id="line2d_6">
      <g>
       <use xlink:href="#mda5e5ff4d6" x="398.487273" y="307.584" style="fill: #262626; stroke: #262626; stroke-width: 0.8"/>
      </g>
     </g>
     <g id="text_6">
      <!-- 2018 -->
      <g style="fill: #262626" transform="translate(383.217273 323.702125) scale(0.12 -0.12)">
       <use xlink:href="#DejaVuSans-32"/>
       <use xlink:href="#DejaVuSans-30" x="63.623047"/>
       <use xlink:href="#DejaVuSans-31" x="127.246094"/>
       <use xlink:href="#DejaVuSans-38" x="190.869141"/>
      </g>
     </g>
    </g>
   </g>
   <g id="matplotlib.axis_2">
    <g id="ytick_1">
     <g id="line2d_7">
      <defs>
       <path id="m43abada57a" d="M 0 0 
L -3.5 0 
" style="stroke: #262626; stroke-width: 0.8"/>
      </defs>
      <g>
       <use xlink:href="#m43abada57a" x="57.6" y="296.118817" style="fill: #262626; stroke: #262626; stroke-width: 0.8"/>
      </g>
     </g>
     <g id="text_7">
      <!-- 0 -->
      <g style="fill: #262626" transform="translate(42.965 300.677879) scale(0.12 -0.12)">
       <use xlink:href="#DejaVuSans-30"/>
      </g>
     </g>
    </g>
    <g id="ytick_2">
     <g id="line2d_8">
      <g>
       <use xlink:href="#m43abada57a" x="57.6" y="264.621436" style="fill: #262626; stroke: #262626; stroke-width: 0.8"/>
      </g>
     </g>
     <g id="text_8">
      <!-- 1 -->
      <g style="fill: #262626" transform="translate(42.965 269.180499) scale(0.12 -0.12)">
       <use xlink:href="#DejaVuSans-31"/>
      </g>
     </g>
    </g>
    <g id="ytick_3">
     <g id="line2d_9">
      <g>
       <use xlink:href="#m43abada57a" x="57.6" y="233.124056" style="fill: #262626; stroke: #262626; stroke-width: 0.8"/>
      </g>
     </g>
     <g id="text_9">
      <!-- 2 -->
      <g style="fill: #262626" transform="translate(42.965 237.683118) scale(0.12 -0.12)">
       <use xlink:href="#DejaVuSans-32"/>
      </g>
     </g>
    </g>
    <g id="ytick_4">
     <g id="line2d_10">
      <g>
       <use xlink:href="#m43abada57a" x="57.6" y="201.626675" style="fill: #262626; stroke: #262626; stroke-width: 0.8"/>
      </g>
     </g>
     <g id="text_10">
      <!-- 3 -->
      <g style="fill: #262626" transform="translate(42.965 206.185738) scale(0.12 -0.12)">
       <defs>
        <path id="DejaVuSans-33" d="M 2597 2516 
Q 3050 2419 3304 2112 
Q 3559 1806 3559 1356 
Q 3559 666 3084 287 
Q 2609 -91 1734 -91 
Q 1441 -91 1130 -33 
Q 819 25 488 141 
L 488 750 
Q 750 597 1062 519 
Q 1375 441 1716 441 
Q 2309 441 2620 675 
Q 2931 909 2931 1356 
Q 2931 1769 2642 2001 
Q 2353 2234 1838 2234 
L 1294 2234 
L 1294 2753 
L 1863 2753 
Q 2328 2753 2575 2939 
Q 2822 3125 2822 3475 
Q 2822 3834 2567 4026 
Q 2313 4219 1838 4219 
Q 1578 4219 1281 4162 
Q 984 4106 628 3988 
L 628 4550 
Q 988 4650 1302 4700 
Q 1616 4750 1894 4750 
Q 2613 4750 3031 4423 
Q 3450 4097 3450 3541 
Q 3450 3153 3228 2886 
Q 3006 2619 2597 2516 
z
" transform="scale(0.015625)"/>
       </defs>
       <use xlink:href="#DejaVuSans-33"/>
      </g>
     </g>
    </g>
    <g id="ytick_5">
     <g id="line2d_11">
      <g>
       <use xlink:href="#m43abada57a" x="57.6" y="170.129295" style="fill: #262626; stroke: #262626; stroke-width: 0.8"/>
      </g>
     </g>
     <g id="text_11">
      <!-- 4 -->
      <g style="fill: #262626" transform="translate(42.965 174.688358) scale(0.12 -0.12)">
       <use xlink:href="#DejaVuSans-34"/>
      </g>
     </g>
    </g>
    <g id="ytick_6">
     <g id="line2d_12">
      <g>
       <use xlink:href="#m43abada57a" x="57.6" y="138.631915" style="fill: #262626; stroke: #262626; stroke-width: 0.8"/>
      </g>
     </g>
     <g id="text_12">
      <!-- 5 -->
      <g style="fill: #262626" transform="translate(42.965 143.190977) scale(0.12 -0.12)">
       <defs>
        <path id="DejaVuSans-35" d="M 691 4666 
L 3169 4666 
L 3169 4134 
L 1269 4134 
L 1269 2991 
Q 1406 3038 1543 3061 
Q 1681 3084 1819 3084 
Q 2600 3084 3056 2656 
Q 3513 2228 3513 1497 
Q 3513 744 3044 326 
Q 2575 -91 1722 -91 
Q 1428 -91 1123 -41 
Q 819 9 494 109 
L 494 744 
Q 775 591 1075 516 
Q 1375 441 1709 441 
Q 2250 441 2565 725 
Q 2881 1009 2881 1497 
Q 2881 1984 2565 2268 
Q 2250 2553 1709 2553 
Q 1456 2553 1204 2497 
Q 953 2441 691 2322 
L 691 4666 
z
" transform="scale(0.015625)"/>
       </defs>
       <use xlink:href="#DejaVuSans-35"/>
      </g>
     </g>
    </g>
    <g id="ytick_7">
     <g id="line2d_13">
      <g>
       <use xlink:href="#m43abada57a" x="57.6" y="107.134534" style="fill: #262626; stroke: #262626; stroke-width: 0.8"/>
      </g>
     </g>
     <g id="text_13">
      <!-- 6 -->
      <g style="fill: #262626" transform="translate(42.965 111.693597) scale(0.12 -0.12)">
       <use xlink:href="#DejaVuSans-36"/>
      </g>
     </g>
    </g>
    <g id="ytick_8">
     <g id="line2d_14">
      <g>
       <use xlink:href="#m43abada57a" x="57.6" y="75.637154" style="fill: #262626; stroke: #262626; stroke-width: 0.8"/>
      </g>
     </g>
     <g id="text_14">
      <!-- 7 -->
      <g style="fill: #262626" transform="translate(42.965 80.196216) scale(0.12 -0.12)">
       <defs>
        <path id="DejaVuSans-37" d="M 525 4666 
L 3525 4666 
L 3525 4397 
L 1831 0 
L 1172 0 
L 2766 4134 
L 525 4134 
L 525 4666 
z
" transform="scale(0.015625)"/>
       </defs>
       <use xlink:href="#DejaVuSans-37"/>
      </g>
     </g>
    </g>
    <g id="ytick_9">
     <g id="line2d_15">
      <g>
       <use xlink:href="#m43abada57a" x="57.6" y="44.139773" style="fill: #262626; stroke: #262626; stroke-width: 0.8"/>
      </g>
     </g>
     <g id="text_15">
      <!-- 8 -->
      <g style="fill: #262626" transform="translate(42.965 48.698836) scale(0.12 -0.12)">
       <use xlink:href="#DejaVuSans-38"/>
      </g>
     </g>
    </g>
    <g id="text_16">
     <!-- CO2 Emissions (Tons, Millions) -->
     <g style="fill: #262626" transform="translate(36.885312 249.98425) rotate(-90) scale(0.1 -0.1)">
      <defs>
       <path id="DejaVuSans-43" d="M 4122 4306 
L 4122 3641 
Q 3803 3938 3442 4084 
Q 3081 4231 2675 4231 
Q 1875 4231 1450 3742 
Q 1025 3253 1025 2328 
Q 1025 1406 1450 917 
Q 1875 428 2675 428 
Q 3081 428 3442 575 
Q 3803 722 4122 1019 
L 4122 359 
Q 3791 134 3420 21 
Q 3050 -91 2638 -91 
Q 1578 -91 968 557 
Q 359 1206 359 2328 
Q 359 3453 968 4101 
Q 1578 4750 2638 4750 
Q 3056 4750 3426 4639 
Q 3797 4528 4122 4306 
z
" transform="scale(0.015625)"/>
       <path id="DejaVuSans-4f" d="M 2522 4238 
Q 1834 4238 1429 3725 
Q 1025 3213 1025 2328 
Q 1025 1447 1429 934 
Q 1834 422 2522 422 
Q 3209 422 3611 934 
Q 4013 1447 4013 2328 
Q 4013 3213 3611 3725 
Q 3209 4238 2522 4238 
z
M 2522 4750 
Q 3503 4750 4090 4092 
Q 4678 3434 4678 2328 
Q 4678 1225 4090 567 
Q 3503 -91 2522 -91 
Q 1538 -91 948 565 
Q 359 1222 359 2328 
Q 359 3434 948 4092 
Q 1538 4750 2522 4750 
z
" transform="scale(0.015625)"/>
       <path id="DejaVuSans-20" transform="scale(0.015625)"/>
       <path id="DejaVuSans-45" d="M 628 4666 
L 3578 4666 
L 3578 4134 
L 1259 4134 
L 1259 2753 
L 3481 2753 
L 3481 2222 
L 1259 2222 
L 1259 531 
L 3634 531 
L 3634 0 
L 628 0 
L 628 4666 
z
" transform="scale(0.015625)"/>
       <path id="DejaVuSans-6d" d="M 3328 2828 
Q 3544 3216 3844 3400 
Q 4144 3584 4550 3584 
Q 5097 3584 5394 3201 
Q 5691 2819 5691 2113 
L 5691 0 
L 5113 0 
L 5113 2094 
Q 5113 2597 4934 2840 
Q 4756 3084 4391 3084 
Q 3944 3084 3684 2787 
Q 3425 2491 3425 1978 
L 3425 0 
L 2847 0 
L 2847 2094 
Q 2847 2600 2669 2842 
Q 2491 3084 2119 3084 
Q 1678 3084 1418 2786 
Q 1159 2488 1159 1978 
L 1159 0 
L 581 0 
L 581 3500 
L 1159 3500 
L 1159 2956 
Q 1356 3278 1631 3431 
Q 1906 3584 2284 3584 
Q 2666 3584 2933 3390 
Q 3200 3197 3328 2828 
z
" transform="scale(0.015625)"/>
       <path id="DejaVuSans-69" d="M 603 3500 
L 1178 3500 
L 1178 0 
L 603 0 
L 603 3500 
z
M 603 4863 
L 1178 4863 
L 1178 4134 
L 603 4134 
L 603 4863 
z
" transform="scale(0.015625)"/>
       <path id="DejaVuSans-73" d="M 2834 3397 
L 2834 2853 
Q 2591 2978 2328 3040 
Q 2066 3103 1784 3103 
Q 1356 3103 1142 2972 
Q 928 2841 928 2578 
Q 928 2378 1081 2264 
Q 1234 2150 1697 2047 
L 1894 2003 
Q 2506 1872 2764 1633 
Q 3022 1394 3022 966 
Q 3022 478 2636 193 
Q 2250 -91 1575 -91 
Q 1294 -91 989 -36 
Q 684 19 347 128 
L 347 722 
Q 666 556 975 473 
Q 1284 391 1588 391 
Q 1994 391 2212 530 
Q 2431 669 2431 922 
Q 2431 1156 2273 1281 
Q 2116 1406 1581 1522 
L 1381 1569 
Q 847 1681 609 1914 
Q 372 2147 372 2553 
Q 372 3047 722 3315 
Q 1072 3584 1716 3584 
Q 2034 3584 2315 3537 
Q 2597 3491 2834 3397 
z
" transform="scale(0.015625)"/>
       <path id="DejaVuSans-6f" d="M 1959 3097 
Q 1497 3097 1228 2736 
Q 959 2375 959 1747 
Q 959 1119 1226 758 
Q 1494 397 1959 397 
Q 2419 397 2687 759 
Q 2956 1122 2956 1747 
Q 2956 2369 2687 2733 
Q 2419 3097 1959 3097 
z
M 1959 3584 
Q 2709 3584 3137 3096 
Q 3566 2609 3566 1747 
Q 3566 888 3137 398 
Q 2709 -91 1959 -91 
Q 1206 -91 779 398 
Q 353 888 353 1747 
Q 353 2609 779 3096 
Q 1206 3584 1959 3584 
z
" transform="scale(0.015625)"/>
       <path id="DejaVuSans-6e" d="M 3513 2113 
L 3513 0 
L 2938 0 
L 2938 2094 
Q 2938 2591 2744 2837 
Q 2550 3084 2163 3084 
Q 1697 3084 1428 2787 
Q 1159 2491 1159 1978 
L 1159 0 
L 581 0 
L 581 3500 
L 1159 3500 
L 1159 2956 
Q 1366 3272 1645 3428 
Q 1925 3584 2291 3584 
Q 2894 3584 3203 3211 
Q 3513 2838 3513 2113 
z
" transform="scale(0.015625)"/>
       <path id="DejaVuSans-28" d="M 1984 4856 
Q 1566 4138 1362 3434 
Q 1159 2731 1159 2009 
Q 1159 1288 1364 580 
Q 1569 -128 1984 -844 
L 1484 -844 
Q 1016 -109 783 600 
Q 550 1309 550 2009 
Q 550 2706 781 3412 
Q 1013 4119 1484 4856 
L 1984 4856 
z
" transform="scale(0.015625)"/>
       <path id="DejaVuSans-54" d="M -19 4666 
L 3928 4666 
L 3928 4134 
L 2272 4134 
L 2272 0 
L 1638 0 
L 1638 4134 
L -19 4134 
L -19 4666 
z
" transform="scale(0.015625)"/>
       <path id="DejaVuSans-2c" d="M 750 794 
L 1409 794 
L 1409 256 
L 897 -744 
L 494 -744 
L 750 256 
L 750 794 
z
" transform="scale(0.015625)"/>
       <path id="DejaVuSans-4d" d="M 628 4666 
L 1569 4666 
L 2759 1491 
L 3956 4666 
L 4897 4666 
L 4897 0 
L 4281 0 
L 4281 4097 
L 3078 897 
L 2444 897 
L 1241 4097 
L 1241 0 
L 628 0 
L 628 4666 
z
" transform="scale(0.015625)"/>
       <path id="DejaVuSans-6c" d="M 603 4863 
L 1178 4863 
L 1178 0 
L 603 0 
L 603 4863 
z
" transform="scale(0.015625)"/>
       <path id="DejaVuSans-29" d="M 513 4856 
L 1013 4856 
Q 1481 4119 1714 3412 
Q 1947 2706 1947 2009 
Q 1947 1309 1714 600 
Q 1481 -109 1013 -844 
L 513 -844 
Q 928 -128 1133 580 
Q 1338 1288 1338 2009 
Q 1338 2731 1133 3434 
Q 928 4138 513 4856 
z
" transform="scale(0.015625)"/>
      </defs>
      <use xlink:href="#DejaVuSans-43"/>
      <use xlink:href="#DejaVuSans-4f" x="69.824219"/>
      <use xlink:href="#DejaVuSans-32" x="148.535156"/>
      <use xlink:href="#DejaVuSans-20" x="212.158203"/>
      <use xlink:href="#DejaVuSans-45" x="243.945312"/>
      <use xlink:href="#DejaVuSans-6d" x="307.128906"/>
      <use xlink:href="#DejaVuSans-69" x="404.541016"/>
      <use xlink:href="#DejaVuSans-73" x="432.324219"/>
      <use xlink:href="#DejaVuSans-73" x="484.423828"/>
      <use xlink:href="#DejaVuSans-69" x="536.523438"/>
      <use xlink:href="#DejaVuSans-6f" x="564.306641"/>
      <use xlink:href="#DejaVuSans-6e" x="625.488281"/>
      <use xlink:href="#DejaVuSans-73" x="688.867188"/>
      <use xlink:href="#DejaVuSans-20" x="740.966797"/>
      <use xlink:href="#DejaVuSans-28" x="772.753906"/>
      <use xlink:href="#DejaVuSans-54" x="811.767578"/>
      <use xlink:href="#DejaVuSans-6f" x="855.851562"/>
      <use xlink:href="#DejaVuSans-6e" x="917.033203"/>
      <use xlink:href="#DejaVuSans-73" x="980.412109"/>
      <use xlink:href="#DejaVuSans-2c" x="1032.511719"/>
      <use xlink:href="#DejaVuSans-20" x="1064.298828"/>
      <use xlink:href="#DejaVuSans-4d" x="1096.085938"/>
      <use xlink:href="#DejaVuSans-69" x="1182.365234"/>
      <use xlink:href="#DejaVuSans-6c" x="1210.148438"/>
      <use xlink:href="#DejaVuSans-6c" x="1237.931641"/>
      <use xlink:href="#DejaVuSans-69" x="1265.714844"/>
      <use xlink:href="#DejaVuSans-6f" x="1293.498047"/>
      <use xlink:href="#DejaVuSans-6e" x="1354.679688"/>
      <use xlink:href="#DejaVuSans-73" x="1418.058594"/>
      <use xlink:href="#DejaVuSans-29" x="1470.158203"/>
     </g>
    </g>
   </g>
   <g id="line2d_16">
    <path d="M 73.832727 270.708948 
L 106.298182 271.080108 
L 138.763636 271.254576 
L 171.229091 266.908468 
L 203.694545 264.134304 
L 236.16 265.094845 
L 268.625455 267.433633 
L 301.090909 268.998099 
L 333.556364 271.789945 
L 366.021818 270.617472 
L 398.487273 270.336657 
" clip-path="url(#p09ad3f72be)" style="fill: none; stroke: #f77189; stroke-width: 1.5; stroke-linecap: round"/>
   </g>
   <g id="line2d_17">
    <path d="M 73.832727 278.620602 
L 106.298182 282.12617 
L 138.763636 279.484289 
L 171.229091 278.441389 
L 203.694545 279.343039 
L 236.16 279.907399 
L 268.625455 280.38174 
L 301.090909 280.813816 
L 333.556364 281.130456 
L 366.021818 280.305787 
L 398.487273 279.646956 
" clip-path="url(#p09ad3f72be)" style="fill: none; stroke: #f77370; stroke-width: 1.5; stroke-linecap: round"/>
   </g>
   <g id="line2d_18">
    <path d="M 73.832727 268.365832 
L 106.298182 275.159501 
L 138.763636 272.007165 
L 171.229091 270.13411 
L 203.694545 271.753316 
L 236.16 272.855462 
L 268.625455 272.656279 
L 301.090909 274.325977 
L 333.556364 274.113729 
L 366.021818 273.127856 
L 398.487273 272.942621 
" clip-path="url(#p09ad3f72be)" style="fill: none; stroke: #f7764a; stroke-width: 1.5; stroke-linecap: round"/>
   </g>
   <g id="line2d_19">
    <path d="M 73.832727 248.061239 
L 106.298182 257.66013 
L 138.763636 250.928111 
L 171.229091 248.737484 
L 203.694545 249.206372 
L 236.16 250.147635 
L 268.625455 251.306117 
L 301.090909 255.197013 
L 333.556364 257.06252 
L 366.021818 255.972352 
L 398.487273 255.777727 
" clip-path="url(#p09ad3f72be)" style="fill: none; stroke: #ea8132; stroke-width: 1.5; stroke-linecap: round"/>
   </g>
   <g id="line2d_20">
    <path d="M 73.832727 288.150976 
L 106.298182 290.234506 
L 138.763636 288.534767 
L 171.229091 287.670973 
L 203.694545 287.716569 
L 236.16 287.820768 
L 268.625455 288.386612 
L 301.090909 289.287378 
L 333.556364 289.784919 
L 366.021818 289.620613 
L 398.487273 289.129205 
" clip-path="url(#p09ad3f72be)" style="fill: none; stroke: #d98a32; stroke-width: 1.5; stroke-linecap: round"/>
   </g>
   <g id="line2d_21">
    <path d="M 73.832727 290.352578 
L 106.298182 291.506566 
L 138.763636 290.878333 
L 171.229091 289.742151 
L 203.694545 289.189227 
L 236.16 289.374081 
L 268.625455 288.725246 
L 301.090909 289.597798 
L 333.556364 290.136902 
L 366.021818 290.383878 
L 398.487273 290.140121 
" clip-path="url(#p09ad3f72be)" style="fill: none; stroke: #cb9132; stroke-width: 1.5; stroke-linecap: round"/>
   </g>
   <g id="line2d_22">
    <path d="M 73.832727 294.603777 
L 106.298182 295.005325 
L 138.763636 294.792129 
L 171.229091 294.712635 
L 203.694545 294.609005 
L 236.16 294.594397 
L 268.625455 294.573426 
L 301.090909 294.468252 
L 333.556364 294.367187 
L 366.021818 294.41656 
L 398.487273 294.444913 
" clip-path="url(#p09ad3f72be)" style="fill: none; stroke: #bf9632; stroke-width: 1.5; stroke-linecap: round"/>
   </g>
   <g id="line2d_23">
    <path d="M 73.832727 282.302957 
L 106.298182 285.074619 
L 138.763636 283.288921 
L 171.229091 282.182249 
L 203.694545 282.992016 
L 236.16 284.031643 
L 268.625455 284.219385 
L 301.090909 284.091456 
L 333.556364 284.292086 
L 366.021818 283.625558 
L 398.487273 283.001684 
" clip-path="url(#p09ad3f72be)" style="fill: none; stroke: #b49b32; stroke-width: 1.5; stroke-linecap: round"/>
   </g>
   <g id="line2d_24">
    <path d="M 73.832727 281.206827 
L 106.298182 283.910095 
L 138.763636 284.494639 
L 171.229091 284.844399 
L 203.694545 285.175122 
L 236.16 284.678829 
L 268.625455 284.907324 
L 301.090909 285.300222 
L 333.556364 285.651134 
L 366.021818 285.690002 
L 398.487273 285.38917 
" clip-path="url(#p09ad3f72be)" style="fill: none; stroke: #a99e31; stroke-width: 1.5; stroke-linecap: round"/>
   </g>
   <g id="line2d_25">
    <path d="M 73.832727 294.623613 
L 106.298182 295.039362 
L 138.763636 294.881596 
L 171.229091 294.58889 
L 203.694545 294.513982 
L 236.16 294.484435 
L 268.625455 294.495796 
L 301.090909 294.63424 
L 333.556364 294.637829 
L 366.021818 294.591162 
L 398.487273 294.504662 
" clip-path="url(#p09ad3f72be)" style="fill: none; stroke: #9da231; stroke-width: 1.5; stroke-linecap: round"/>
   </g>
   <g id="line2d_26">
    <path d="M 73.832727 285.351202 
L 106.298182 287.643573 
L 138.763636 287.151539 
L 171.229091 286.92321 
L 203.694545 287.628409 
L 236.16 287.809872 
L 268.625455 288.143482 
L 301.090909 288.935528 
L 333.556364 288.648934 
L 366.021818 288.48811 
L 398.487273 287.987945 
" clip-path="url(#p09ad3f72be)" style="fill: none; stroke: #90a531; stroke-width: 1.5; stroke-linecap: round"/>
   </g>
   <g id="line2d_27">
    <path d="M 73.832727 230.197189 
L 106.298182 243.315917 
L 138.763636 236.278599 
L 171.229091 232.831709 
L 203.694545 238.023206 
L 236.16 238.527469 
L 268.625455 239.353932 
L 301.090909 242.963222 
L 333.556364 243.312403 
L 366.021818 240.965104 
L 398.487273 239.458463 
" clip-path="url(#p09ad3f72be)" style="fill: none; stroke: #80a931; stroke-width: 1.5; stroke-linecap: round"/>
   </g>
   <g id="line2d_28">
    <path d="M 73.832727 180.60459 
L 106.298182 205.643716 
L 138.763636 184.171497 
L 171.229091 178.965087 
L 203.694545 187.922197 
L 236.16 189.718775 
L 268.625455 191.991932 
L 301.090909 195.991157 
L 333.556364 196.786326 
L 366.021818 190.533877 
L 398.487273 188.395547 
" clip-path="url(#p09ad3f72be)" style="fill: none; stroke: #68ad31; stroke-width: 1.5; stroke-linecap: round"/>
   </g>
   <g id="line2d_29">
    <path d="M 73.832727 280.609067 
L 106.298182 284.323075 
L 138.763636 284.730237 
L 171.229091 285.796065 
L 203.694545 287.996312 
L 236.16 288.435824 
L 268.625455 288.257922 
L 301.090909 288.927102 
L 333.556364 289.363405 
L 366.021818 289.009178 
L 398.487273 288.566554 
" clip-path="url(#p09ad3f72be)" style="fill: none; stroke: #3cb231; stroke-width: 1.5; stroke-linecap: round"/>
   </g>
   <g id="line2d_30">
    <path d="M 73.832727 285.111109 
L 106.298182 287.587724 
L 138.763636 286.440454 
L 171.229091 286.575598 
L 203.694545 287.603082 
L 236.16 287.743363 
L 268.625455 287.568847 
L 301.090909 287.625736 
L 333.556364 287.725917 
L 366.021818 286.997154 
L 398.487273 286.585695 
" clip-path="url(#p09ad3f72be)" style="fill: none; stroke: #32b25e; stroke-width: 1.5; stroke-linecap: round"/>
   </g>
   <g id="line2d_31">
    <path d="M 73.832727 295.301704 
L 106.298182 295.488 
L 138.763636 295.429204 
L 171.229091 295.389877 
L 203.694545 295.399716 
L 236.16 295.432307 
L 268.625455 295.396119 
L 301.090909 295.350217 
L 333.556364 295.257236 
L 366.021818 295.1823 
L 398.487273 295.09647 
" clip-path="url(#p09ad3f72be)" style="fill: none; stroke: #33b077; stroke-width: 1.5; stroke-linecap: round"/>
   </g>
   <g id="line2d_32">
    <path d="M 73.832727 284.365623 
L 106.298182 285.273545 
L 138.763636 285.78578 
L 171.229091 286.285758 
L 203.694545 286.868641 
L 236.16 286.671365 
L 268.625455 286.039773 
L 301.090909 285.099549 
L 333.556364 283.695816 
L 366.021818 282.882171 
L 398.487273 282.907648 
" clip-path="url(#p09ad3f72be)" style="fill: none; stroke: #34af86; stroke-width: 1.5; stroke-linecap: round"/>
   </g>
   <g id="line2d_33">
    <path d="M 73.832727 289.401893 
L 106.298182 290.713293 
L 138.763636 290.055325 
L 171.229091 289.275304 
L 203.694545 289.562674 
L 236.16 289.387473 
L 268.625455 289.662984 
L 301.090909 289.819641 
L 333.556364 288.998121 
L 366.021818 288.724694 
L 398.487273 287.887067 
" clip-path="url(#p09ad3f72be)" style="fill: none; stroke: #35ae92; stroke-width: 1.5; stroke-linecap: round"/>
   </g>
   <g id="line2d_34">
    <path d="M 73.832727 235.162697 
L 106.298182 251.022383 
L 138.763636 242.908203 
L 171.229091 242.491821 
L 203.694545 250.206842 
L 236.16 252.447356 
L 268.625455 252.531547 
L 301.090909 253.758483 
L 333.556364 254.203892 
L 366.021818 251.527134 
L 398.487273 250.134339 
" clip-path="url(#p09ad3f72be)" style="fill: none; stroke: #35ae9c; stroke-width: 1.5; stroke-linecap: round"/>
   </g>
   <g id="line2d_35">
    <path d="M 73.832727 188.928367 
L 106.298182 214.529535 
L 138.763636 197.582974 
L 171.229091 198.223978 
L 203.694545 199.462859 
L 236.16 212.114034 
L 268.625455 211.990996 
L 301.090909 219.556811 
L 333.556364 223.533334 
L 366.021818 221.034595 
L 398.487273 217.804817 
" clip-path="url(#p09ad3f72be)" style="fill: none; stroke: #36ada4; stroke-width: 1.5; stroke-linecap: round"/>
   </g>
   <g id="line2d_36">
    <path d="M 73.832727 234.492328 
L 106.298182 249.679122 
L 138.763636 240.035288 
L 171.229091 230.322771 
L 203.694545 235.64638 
L 236.16 238.431997 
L 268.625455 239.932091 
L 301.090909 243.673562 
L 333.556364 247.506869 
L 366.021818 242.66563 
L 398.487273 241.471992 
" clip-path="url(#p09ad3f72be)" style="fill: none; stroke: #36acac; stroke-width: 1.5; stroke-linecap: round"/>
   </g>
   <g id="line2d_37">
    <path d="M 73.832727 294.189784 
L 106.298182 294.873851 
L 138.763636 294.7471 
L 171.229091 294.51207 
L 203.694545 294.475644 
L 236.16 294.625498 
L 268.625455 294.707675 
L 301.090909 294.590219 
L 333.556364 294.535082 
L 366.021818 294.595538 
L 398.487273 294.525194 
" clip-path="url(#p09ad3f72be)" style="fill: none; stroke: #37abb4; stroke-width: 1.5; stroke-linecap: round"/>
   </g>
   <g id="line2d_38">
    <path d="M 73.832727 293.257644 
L 106.298182 294.173393 
L 138.763636 293.681455 
L 171.229091 293.590831 
L 203.694545 293.520336 
L 236.16 293.39515 
L 268.625455 293.640289 
L 301.090909 293.468917 
L 333.556364 293.546649 
L 366.021818 293.53803 
L 398.487273 293.360027 
" clip-path="url(#p09ad3f72be)" style="fill: none; stroke: #37aabd; stroke-width: 1.5; stroke-linecap: round"/>
   </g>
   <g id="line2d_39">
    <path d="M 73.832727 291.998965 
L 106.298182 293.040725 
L 138.763636 292.587703 
L 171.229091 292.413605 
L 203.694545 292.343331 
L 236.16 292.132898 
L 268.625455 291.483586 
L 301.090909 291.750034 
L 333.556364 291.846219 
L 366.021818 291.494262 
L 398.487273 291.407591 
" clip-path="url(#p09ad3f72be)" style="fill: none; stroke: #38a9c7; stroke-width: 1.5; stroke-linecap: round"/>
   </g>
   <g id="line2d_40">
    <path d="M 73.832727 264.066686 
L 106.298182 270.156201 
L 138.763636 264.538445 
L 171.229091 261.94095 
L 203.694545 261.244183 
L 236.16 261.520942 
L 268.625455 260.304319 
L 301.090909 259.706816 
L 333.556364 260.860633 
L 366.021818 259.63171 
L 398.487273 257.934821 
" clip-path="url(#p09ad3f72be)" style="fill: none; stroke: #39a7d4; stroke-width: 1.5; stroke-linecap: round"/>
   </g>
   <g id="line2d_41">
    <path d="M 73.832727 269.469997 
L 106.298182 273.98564 
L 138.763636 271.598165 
L 171.229091 271.517456 
L 203.694545 273.156171 
L 236.16 272.144082 
L 268.625455 272.346089 
L 301.090909 269.054762 
L 333.556364 270.426323 
L 366.021818 269.496936 
L 398.487273 268.87294 
" clip-path="url(#p09ad3f72be)" style="fill: none; stroke: #3ba4e5; stroke-width: 1.5; stroke-linecap: round"/>
   </g>
   <g id="line2d_42">
    <path d="M 73.832727 291.642664 
L 106.298182 292.862154 
L 138.763636 292.179721 
L 171.229091 291.887653 
L 203.694545 291.915523 
L 236.16 291.829538 
L 268.625455 291.658675 
L 301.090909 291.904194 
L 333.556364 291.914018 
L 366.021818 291.6652 
L 398.487273 291.55137 
" clip-path="url(#p09ad3f72be)" style="fill: none; stroke: #539ff4; stroke-width: 1.5; stroke-linecap: round"/>
   </g>
   <g id="line2d_43">
    <path d="M 73.832727 280.103733 
L 106.298182 284.142479 
L 138.763636 282.306937 
L 171.229091 282.94605 
L 203.694545 283.461198 
L 236.16 283.033026 
L 268.625455 283.300556 
L 301.090909 284.899246 
L 333.556364 284.79958 
L 366.021818 284.523153 
L 398.487273 283.846339 
" clip-path="url(#p09ad3f72be)" style="fill: none; stroke: #7c98f4; stroke-width: 1.5; stroke-linecap: round"/>
   </g>
   <g id="line2d_44">
    <path d="M 73.832727 274.125878 
L 106.298182 279.409917 
L 138.763636 276.93635 
L 171.229091 276.572919 
L 203.694545 277.095958 
L 236.16 278.083052 
L 268.625455 276.91879 
L 301.090909 277.458633 
L 333.556364 277.099263 
L 366.021818 275.540775 
L 398.487273 274.253603 
" clip-path="url(#p09ad3f72be)" style="fill: none; stroke: #9890f4; stroke-width: 1.5; stroke-linecap: round"/>
   </g>
   <g id="line2d_45">
    <path d="M 73.832727 287.704389 
L 106.298182 289.494939 
L 138.763636 288.68388 
L 171.229091 288.928037 
L 203.694545 289.823554 
L 236.16 289.889453 
L 268.625455 289.731138 
L 301.090909 289.901493 
L 333.556364 289.359843 
L 366.021818 289.015294 
L 398.487273 288.165594 
" clip-path="url(#p09ad3f72be)" style="fill: none; stroke: #af88f4; stroke-width: 1.5; stroke-linecap: round"/>
   </g>
   <g id="line2d_46">
    <path d="M 73.832727 288.459581 
L 106.298182 290.248787 
L 138.763636 289.676376 
L 171.229091 289.248772 
L 203.694545 289.472093 
L 236.16 289.629794 
L 268.625455 289.667698 
L 301.090909 289.543921 
L 333.556364 289.284314 
L 366.021818 289.038302 
L 398.487273 288.857337 
" clip-path="url(#p09ad3f72be)" style="fill: none; stroke: #c47ef4; stroke-width: 1.5; stroke-linecap: round"/>
   </g>
   <g id="line2d_47">
    <path d="M 73.832727 292.659392 
L 106.298182 293.764393 
L 138.763636 293.428121 
L 171.229091 293.287245 
L 203.694545 293.576635 
L 236.16 293.726559 
L 268.625455 293.7702 
L 301.090909 293.813648 
L 333.556364 293.731503 
L 366.021818 293.487569 
L 398.487273 293.436301 
" clip-path="url(#p09ad3f72be)" style="fill: none; stroke: #d972f4; stroke-width: 1.5; stroke-linecap: round"/>
   </g>
   <g id="line2d_48">
    <path d="M 73.832727 254.666855 
L 106.298182 266.603457 
L 138.763636 263.706877 
L 171.229091 263.303892 
L 203.694545 269.229776 
L 236.16 270.083623 
L 268.625455 269.409065 
L 301.090909 269.530614 
L 333.556364 269.235304 
L 366.021818 267.167758 
L 398.487273 266.237991 
" clip-path="url(#p09ad3f72be)" style="fill: none; stroke: #ef5ff4; stroke-width: 1.5; stroke-linecap: round"/>
   </g>
   <g id="line2d_49">
    <path d="M 73.832727 278.020111 
L 106.298182 283.034205 
L 138.763636 280.284227 
L 171.229091 279.431226 
L 203.694545 280.332678 
L 236.16 280.696435 
L 268.625455 281.379837 
L 301.090909 281.843368 
L 333.556364 282.080943 
L 366.021818 281.4386 
L 398.487273 281.557915 
" clip-path="url(#p09ad3f72be)" style="fill: none; stroke: #f560e2; stroke-width: 1.5; stroke-linecap: round"/>
   </g>
   <g id="line2d_50">
    <path d="M 73.832727 274.643881 
L 106.298182 275.131501 
L 138.763636 272.155031 
L 171.229091 267.661234 
L 203.694545 270.770057 
L 236.16 271.513781 
L 268.625455 271.397433 
L 301.090909 275.74532 
L 333.556364 274.718393 
L 366.021818 273.45402 
L 398.487273 276.688463 
" clip-path="url(#p09ad3f72be)" style="fill: none; stroke: #f565d0; stroke-width: 1.5; stroke-linecap: round"/>
   </g>
   <g id="line2d_51">
    <path d="M 73.832727 272.93727 
L 106.298182 277.631986 
L 138.763636 273.441581 
L 171.229091 270.674986 
L 203.694545 270.613031 
L 236.16 270.403638 
L 268.625455 271.505516 
L 301.090909 271.927013 
L 333.556364 273.076849 
L 366.021818 271.525721 
L 398.487273 274.608291 
" clip-path="url(#p09ad3f72be)" style="fill: none; stroke: #f668bf; stroke-width: 1.5; stroke-linecap: round"/>
   </g>
   <g id="line2d_52">
    <path d="M 73.832727 230.925962 
L 106.298182 244.034063 
L 138.763636 239.796155 
L 171.229091 239.427742 
L 203.694545 241.879272 
L 236.16 242.09984 
L 268.625455 242.467684 
L 301.090909 242.043305 
L 333.556364 245.098112 
L 366.021818 246.07092 
L 398.487273 243.694979 
" clip-path="url(#p09ad3f72be)" style="fill: none; stroke: #f66baf; stroke-width: 1.5; stroke-linecap: round"/>
   </g>
   <g id="line2d_53">
    <path d="M 73.832727 53.568 
L 106.298182 96.780869 
L 138.763636 77.856246 
L 171.229091 74.453538 
L 203.694545 71.606132 
L 236.16 73.820446 
L 268.625455 69.679049 
L 301.090909 56.922964 
L 333.556364 67.414088 
L 366.021818 60.821247 
L 398.487273 57.147811 
" clip-path="url(#p09ad3f72be)" style="fill: none; stroke: #f66e9e; stroke-width: 1.5; stroke-linecap: round"/>
   </g>
   <g id="line2d_54"/>
   <g id="line2d_55"/>
   <g id="line2d_56"/>
   <g id="line2d_57"/>
   <g id="line2d_58"/>
   <g id="line2d_59"/>
   <g id="line2d_60"/>
   <g id="line2d_61"/>
   <g id="line2d_62"/>
   <g id="line2d_63"/>
   <g id="line2d_64"/>
   <g id="line2d_65"/>
   <g id="line2d_66"/>
   <g id="line2d_67"/>
   <g id="line2d_68"/>
   <g id="line2d_69"/>
   <g id="line2d_70"/>
   <g id="line2d_71"/>
   <g id="line2d_72"/>
   <g id="line2d_73"/>
   <g id="line2d_74"/>
   <g id="line2d_75"/>
   <g id="line2d_76"/>
   <g id="line2d_77"/>
   <g id="line2d_78"/>
   <g id="line2d_79"/>
   <g id="line2d_80"/>
   <g id="line2d_81"/>
   <g id="line2d_82"/>
   <g id="line2d_83"/>
   <g id="line2d_84"/>
   <g id="line2d_85"/>
   <g id="line2d_86"/>
   <g id="line2d_87"/>
   <g id="line2d_88"/>
   <g id="line2d_89"/>
   <g id="line2d_90"/>
   <g id="line2d_91"/>
   <g id="legend_1">
    <g id="line2d_92">
     <path d="M 441.576 54.570438 
L 451.576 54.570438 
L 461.576 54.570438 
" style="fill: none; stroke: #f77189; stroke-width: 1.5; stroke-linecap: round"/>
    </g>
    <g id="text_17">
     <!-- Australia -->
     <g style="fill: #262626" transform="translate(469.576 58.070438) scale(0.1 -0.1)">
      <defs>
       <path id="DejaVuSans-41" d="M 2188 4044 
L 1331 1722 
L 3047 1722 
L 2188 4044 
z
M 1831 4666 
L 2547 4666 
L 4325 0 
L 3669 0 
L 3244 1197 
L 1141 1197 
L 716 0 
L 50 0 
L 1831 4666 
z
" transform="scale(0.015625)"/>
       <path id="DejaVuSans-75" d="M 544 1381 
L 544 3500 
L 1119 3500 
L 1119 1403 
Q 1119 906 1312 657 
Q 1506 409 1894 409 
Q 2359 409 2629 706 
Q 2900 1003 2900 1516 
L 2900 3500 
L 3475 3500 
L 3475 0 
L 2900 0 
L 2900 538 
Q 2691 219 2414 64 
Q 2138 -91 1772 -91 
Q 1169 -91 856 284 
Q 544 659 544 1381 
z
M 1991 3584 
L 1991 3584 
z
" transform="scale(0.015625)"/>
       <path id="DejaVuSans-74" d="M 1172 4494 
L 1172 3500 
L 2356 3500 
L 2356 3053 
L 1172 3053 
L 1172 1153 
Q 1172 725 1289 603 
Q 1406 481 1766 481 
L 2356 481 
L 2356 0 
L 1766 0 
Q 1100 0 847 248 
Q 594 497 594 1153 
L 594 3053 
L 172 3053 
L 172 3500 
L 594 3500 
L 594 4494 
L 1172 4494 
z
" transform="scale(0.015625)"/>
       <path id="DejaVuSans-72" d="M 2631 2963 
Q 2534 3019 2420 3045 
Q 2306 3072 2169 3072 
Q 1681 3072 1420 2755 
Q 1159 2438 1159 1844 
L 1159 0 
L 581 0 
L 581 3500 
L 1159 3500 
L 1159 2956 
Q 1341 3275 1631 3429 
Q 1922 3584 2338 3584 
Q 2397 3584 2469 3576 
Q 2541 3569 2628 3553 
L 2631 2963 
z
" transform="scale(0.015625)"/>
       <path id="DejaVuSans-61" d="M 2194 1759 
Q 1497 1759 1228 1600 
Q 959 1441 959 1056 
Q 959 750 1161 570 
Q 1363 391 1709 391 
Q 2188 391 2477 730 
Q 2766 1069 2766 1631 
L 2766 1759 
L 2194 1759 
z
M 3341 1997 
L 3341 0 
L 2766 0 
L 2766 531 
Q 2569 213 2275 61 
Q 1981 -91 1556 -91 
Q 1019 -91 701 211 
Q 384 513 384 1019 
Q 384 1609 779 1909 
Q 1175 2209 1959 2209 
L 2766 2209 
L 2766 2266 
Q 2766 2663 2505 2880 
Q 2244 3097 1772 3097 
Q 1472 3097 1187 3025 
Q 903 2953 641 2809 
L 641 3341 
Q 956 3463 1253 3523 
Q 1550 3584 1831 3584 
Q 2591 3584 2966 3190 
Q 3341 2797 3341 1997 
z
" transform="scale(0.015625)"/>
      </defs>
      <use xlink:href="#DejaVuSans-41"/>
      <use xlink:href="#DejaVuSans-75" x="68.408203"/>
      <use xlink:href="#DejaVuSans-73" x="131.787109"/>
      <use xlink:href="#DejaVuSans-74" x="183.886719"/>
      <use xlink:href="#DejaVuSans-72" x="223.095703"/>
      <use xlink:href="#DejaVuSans-61" x="264.208984"/>
      <use xlink:href="#DejaVuSans-6c" x="325.488281"/>
      <use xlink:href="#DejaVuSans-69" x="353.271484"/>
      <use xlink:href="#DejaVuSans-61" x="381.054688"/>
     </g>
    </g>
    <g id="line2d_93">
     <path d="M 441.576 69.248563 
L 451.576 69.248563 
L 461.576 69.248563 
" style="fill: none; stroke: #f77370; stroke-width: 1.5; stroke-linecap: round"/>
    </g>
    <g id="text_18">
     <!-- Austria -->
     <g style="fill: #262626" transform="translate(469.576 72.748563) scale(0.1 -0.1)">
      <use xlink:href="#DejaVuSans-41"/>
      <use xlink:href="#DejaVuSans-75" x="68.408203"/>
      <use xlink:href="#DejaVuSans-73" x="131.787109"/>
      <use xlink:href="#DejaVuSans-74" x="183.886719"/>
      <use xlink:href="#DejaVuSans-72" x="223.095703"/>
      <use xlink:href="#DejaVuSans-69" x="264.208984"/>
      <use xlink:href="#DejaVuSans-61" x="291.992188"/>
     </g>
    </g>
    <g id="line2d_94">
     <path d="M 441.576 83.926688 
L 451.576 83.926688 
L 461.576 83.926688 
" style="fill: none; stroke: #f7764a; stroke-width: 1.5; stroke-linecap: round"/>
    </g>
    <g id="text_19">
     <!-- Belgium -->
     <g style="fill: #262626" transform="translate(469.576 87.426688) scale(0.1 -0.1)">
      <defs>
       <path id="DejaVuSans-42" d="M 1259 2228 
L 1259 519 
L 2272 519 
Q 2781 519 3026 730 
Q 3272 941 3272 1375 
Q 3272 1813 3026 2020 
Q 2781 2228 2272 2228 
L 1259 2228 
z
M 1259 4147 
L 1259 2741 
L 2194 2741 
Q 2656 2741 2882 2914 
Q 3109 3088 3109 3444 
Q 3109 3797 2882 3972 
Q 2656 4147 2194 4147 
L 1259 4147 
z
M 628 4666 
L 2241 4666 
Q 2963 4666 3353 4366 
Q 3744 4066 3744 3513 
Q 3744 3084 3544 2831 
Q 3344 2578 2956 2516 
Q 3422 2416 3680 2098 
Q 3938 1781 3938 1306 
Q 3938 681 3513 340 
Q 3088 0 2303 0 
L 628 0 
L 628 4666 
z
" transform="scale(0.015625)"/>
       <path id="DejaVuSans-65" d="M 3597 1894 
L 3597 1613 
L 953 1613 
Q 991 1019 1311 708 
Q 1631 397 2203 397 
Q 2534 397 2845 478 
Q 3156 559 3463 722 
L 3463 178 
Q 3153 47 2828 -22 
Q 2503 -91 2169 -91 
Q 1331 -91 842 396 
Q 353 884 353 1716 
Q 353 2575 817 3079 
Q 1281 3584 2069 3584 
Q 2775 3584 3186 3129 
Q 3597 2675 3597 1894 
z
M 3022 2063 
Q 3016 2534 2758 2815 
Q 2500 3097 2075 3097 
Q 1594 3097 1305 2825 
Q 1016 2553 972 2059 
L 3022 2063 
z
" transform="scale(0.015625)"/>
       <path id="DejaVuSans-67" d="M 2906 1791 
Q 2906 2416 2648 2759 
Q 2391 3103 1925 3103 
Q 1463 3103 1205 2759 
Q 947 2416 947 1791 
Q 947 1169 1205 825 
Q 1463 481 1925 481 
Q 2391 481 2648 825 
Q 2906 1169 2906 1791 
z
M 3481 434 
Q 3481 -459 3084 -895 
Q 2688 -1331 1869 -1331 
Q 1566 -1331 1297 -1286 
Q 1028 -1241 775 -1147 
L 775 -588 
Q 1028 -725 1275 -790 
Q 1522 -856 1778 -856 
Q 2344 -856 2625 -561 
Q 2906 -266 2906 331 
L 2906 616 
Q 2728 306 2450 153 
Q 2172 0 1784 0 
Q 1141 0 747 490 
Q 353 981 353 1791 
Q 353 2603 747 3093 
Q 1141 3584 1784 3584 
Q 2172 3584 2450 3431 
Q 2728 3278 2906 2969 
L 2906 3500 
L 3481 3500 
L 3481 434 
z
" transform="scale(0.015625)"/>
      </defs>
      <use xlink:href="#DejaVuSans-42"/>
      <use xlink:href="#DejaVuSans-65" x="68.603516"/>
      <use xlink:href="#DejaVuSans-6c" x="130.126953"/>
      <use xlink:href="#DejaVuSans-67" x="157.910156"/>
      <use xlink:href="#DejaVuSans-69" x="221.386719"/>
      <use xlink:href="#DejaVuSans-75" x="249.169922"/>
      <use xlink:href="#DejaVuSans-6d" x="312.548828"/>
     </g>
    </g>
    <g id="line2d_95">
     <path d="M 441.576 98.604813 
L 451.576 98.604813 
L 461.576 98.604813 
" style="fill: none; stroke: #ea8132; stroke-width: 1.5; stroke-linecap: round"/>
    </g>
    <g id="text_20">
     <!-- Canada -->
     <g style="fill: #262626" transform="translate(469.576 102.104813) scale(0.1 -0.1)">
      <defs>
       <path id="DejaVuSans-64" d="M 2906 2969 
L 2906 4863 
L 3481 4863 
L 3481 0 
L 2906 0 
L 2906 525 
Q 2725 213 2448 61 
Q 2172 -91 1784 -91 
Q 1150 -91 751 415 
Q 353 922 353 1747 
Q 353 2572 751 3078 
Q 1150 3584 1784 3584 
Q 2172 3584 2448 3432 
Q 2725 3281 2906 2969 
z
M 947 1747 
Q 947 1113 1208 752 
Q 1469 391 1925 391 
Q 2381 391 2643 752 
Q 2906 1113 2906 1747 
Q 2906 2381 2643 2742 
Q 2381 3103 1925 3103 
Q 1469 3103 1208 2742 
Q 947 2381 947 1747 
z
" transform="scale(0.015625)"/>
      </defs>
      <use xlink:href="#DejaVuSans-43"/>
      <use xlink:href="#DejaVuSans-61" x="69.824219"/>
      <use xlink:href="#DejaVuSans-6e" x="131.103516"/>
      <use xlink:href="#DejaVuSans-61" x="194.482422"/>
      <use xlink:href="#DejaVuSans-64" x="255.761719"/>
      <use xlink:href="#DejaVuSans-61" x="319.238281"/>
     </g>
    </g>
    <g id="line2d_96">
     <path d="M 441.576 113.282938 
L 451.576 113.282938 
L 461.576 113.282938 
" style="fill: none; stroke: #d98a32; stroke-width: 1.5; stroke-linecap: round"/>
    </g>
    <g id="text_21">
     <!-- Chile -->
     <g style="fill: #262626" transform="translate(469.576 116.782938) scale(0.1 -0.1)">
      <defs>
       <path id="DejaVuSans-68" d="M 3513 2113 
L 3513 0 
L 2938 0 
L 2938 2094 
Q 2938 2591 2744 2837 
Q 2550 3084 2163 3084 
Q 1697 3084 1428 2787 
Q 1159 2491 1159 1978 
L 1159 0 
L 581 0 
L 581 4863 
L 1159 4863 
L 1159 2956 
Q 1366 3272 1645 3428 
Q 1925 3584 2291 3584 
Q 2894 3584 3203 3211 
Q 3513 2838 3513 2113 
z
" transform="scale(0.015625)"/>
      </defs>
      <use xlink:href="#DejaVuSans-43"/>
      <use xlink:href="#DejaVuSans-68" x="69.824219"/>
      <use xlink:href="#DejaVuSans-69" x="133.203125"/>
      <use xlink:href="#DejaVuSans-6c" x="160.986328"/>
      <use xlink:href="#DejaVuSans-65" x="188.769531"/>
     </g>
    </g>
    <g id="line2d_97">
     <path d="M 441.576 127.961063 
L 451.576 127.961063 
L 461.576 127.961063 
" style="fill: none; stroke: #cb9132; stroke-width: 1.5; stroke-linecap: round"/>
    </g>
    <g id="text_22">
     <!-- Colombia -->
     <g style="fill: #262626" transform="translate(469.576 131.461063) scale(0.1 -0.1)">
      <defs>
       <path id="DejaVuSans-62" d="M 3116 1747 
Q 3116 2381 2855 2742 
Q 2594 3103 2138 3103 
Q 1681 3103 1420 2742 
Q 1159 2381 1159 1747 
Q 1159 1113 1420 752 
Q 1681 391 2138 391 
Q 2594 391 2855 752 
Q 3116 1113 3116 1747 
z
M 1159 2969 
Q 1341 3281 1617 3432 
Q 1894 3584 2278 3584 
Q 2916 3584 3314 3078 
Q 3713 2572 3713 1747 
Q 3713 922 3314 415 
Q 2916 -91 2278 -91 
Q 1894 -91 1617 61 
Q 1341 213 1159 525 
L 1159 0 
L 581 0 
L 581 4863 
L 1159 4863 
L 1159 2969 
z
" transform="scale(0.015625)"/>
      </defs>
      <use xlink:href="#DejaVuSans-43"/>
      <use xlink:href="#DejaVuSans-6f" x="69.824219"/>
      <use xlink:href="#DejaVuSans-6c" x="131.005859"/>
      <use xlink:href="#DejaVuSans-6f" x="158.789062"/>
      <use xlink:href="#DejaVuSans-6d" x="219.970703"/>
      <use xlink:href="#DejaVuSans-62" x="317.382812"/>
      <use xlink:href="#DejaVuSans-69" x="380.859375"/>
      <use xlink:href="#DejaVuSans-61" x="408.642578"/>
     </g>
    </g>
    <g id="line2d_98">
     <path d="M 441.576 142.639188 
L 451.576 142.639188 
L 461.576 142.639188 
" style="fill: none; stroke: #bf9632; stroke-width: 1.5; stroke-linecap: round"/>
    </g>
    <g id="text_23">
     <!-- Costa Rica -->
     <g style="fill: #262626" transform="translate(469.576 146.139188) scale(0.1 -0.1)">
      <defs>
       <path id="DejaVuSans-52" d="M 2841 2188 
Q 3044 2119 3236 1894 
Q 3428 1669 3622 1275 
L 4263 0 
L 3584 0 
L 2988 1197 
Q 2756 1666 2539 1819 
Q 2322 1972 1947 1972 
L 1259 1972 
L 1259 0 
L 628 0 
L 628 4666 
L 2053 4666 
Q 2853 4666 3247 4331 
Q 3641 3997 3641 3322 
Q 3641 2881 3436 2590 
Q 3231 2300 2841 2188 
z
M 1259 4147 
L 1259 2491 
L 2053 2491 
Q 2509 2491 2742 2702 
Q 2975 2913 2975 3322 
Q 2975 3731 2742 3939 
Q 2509 4147 2053 4147 
L 1259 4147 
z
" transform="scale(0.015625)"/>
       <path id="DejaVuSans-63" d="M 3122 3366 
L 3122 2828 
Q 2878 2963 2633 3030 
Q 2388 3097 2138 3097 
Q 1578 3097 1268 2742 
Q 959 2388 959 1747 
Q 959 1106 1268 751 
Q 1578 397 2138 397 
Q 2388 397 2633 464 
Q 2878 531 3122 666 
L 3122 134 
Q 2881 22 2623 -34 
Q 2366 -91 2075 -91 
Q 1284 -91 818 406 
Q 353 903 353 1747 
Q 353 2603 823 3093 
Q 1294 3584 2113 3584 
Q 2378 3584 2631 3529 
Q 2884 3475 3122 3366 
z
" transform="scale(0.015625)"/>
      </defs>
      <use xlink:href="#DejaVuSans-43"/>
      <use xlink:href="#DejaVuSans-6f" x="69.824219"/>
      <use xlink:href="#DejaVuSans-73" x="131.005859"/>
      <use xlink:href="#DejaVuSans-74" x="183.105469"/>
      <use xlink:href="#DejaVuSans-61" x="222.314453"/>
      <use xlink:href="#DejaVuSans-20" x="283.59375"/>
      <use xlink:href="#DejaVuSans-52" x="315.380859"/>
      <use xlink:href="#DejaVuSans-69" x="384.863281"/>
      <use xlink:href="#DejaVuSans-63" x="412.646484"/>
      <use xlink:href="#DejaVuSans-61" x="467.626953"/>
     </g>
    </g>
    <g id="line2d_99">
     <path d="M 441.576 157.317313 
L 451.576 157.317313 
L 461.576 157.317313 
" style="fill: none; stroke: #b49b32; stroke-width: 1.5; stroke-linecap: round"/>
    </g>
    <g id="text_24">
     <!-- Czech Republic -->
     <g style="fill: #262626" transform="translate(469.576 160.817313) scale(0.1 -0.1)">
      <defs>
       <path id="DejaVuSans-7a" d="M 353 3500 
L 3084 3500 
L 3084 2975 
L 922 459 
L 3084 459 
L 3084 0 
L 275 0 
L 275 525 
L 2438 3041 
L 353 3041 
L 353 3500 
z
" transform="scale(0.015625)"/>
       <path id="DejaVuSans-70" d="M 1159 525 
L 1159 -1331 
L 581 -1331 
L 581 3500 
L 1159 3500 
L 1159 2969 
Q 1341 3281 1617 3432 
Q 1894 3584 2278 3584 
Q 2916 3584 3314 3078 
Q 3713 2572 3713 1747 
Q 3713 922 3314 415 
Q 2916 -91 2278 -91 
Q 1894 -91 1617 61 
Q 1341 213 1159 525 
z
M 3116 1747 
Q 3116 2381 2855 2742 
Q 2594 3103 2138 3103 
Q 1681 3103 1420 2742 
Q 1159 2381 1159 1747 
Q 1159 1113 1420 752 
Q 1681 391 2138 391 
Q 2594 391 2855 752 
Q 3116 1113 3116 1747 
z
" transform="scale(0.015625)"/>
      </defs>
      <use xlink:href="#DejaVuSans-43"/>
      <use xlink:href="#DejaVuSans-7a" x="69.824219"/>
      <use xlink:href="#DejaVuSans-65" x="122.314453"/>
      <use xlink:href="#DejaVuSans-63" x="183.837891"/>
      <use xlink:href="#DejaVuSans-68" x="238.818359"/>
      <use xlink:href="#DejaVuSans-20" x="302.197266"/>
      <use xlink:href="#DejaVuSans-52" x="333.984375"/>
      <use xlink:href="#DejaVuSans-65" x="398.966797"/>
      <use xlink:href="#DejaVuSans-70" x="460.490234"/>
      <use xlink:href="#DejaVuSans-75" x="523.966797"/>
      <use xlink:href="#DejaVuSans-62" x="587.345703"/>
      <use xlink:href="#DejaVuSans-6c" x="650.822266"/>
      <use xlink:href="#DejaVuSans-69" x="678.605469"/>
      <use xlink:href="#DejaVuSans-63" x="706.388672"/>
     </g>
    </g>
    <g id="line2d_100">
     <path d="M 441.576 171.995438 
L 451.576 171.995438 
L 461.576 171.995438 
" style="fill: none; stroke: #a99e31; stroke-width: 1.5; stroke-linecap: round"/>
    </g>
    <g id="text_25">
     <!-- Denmark -->
     <g style="fill: #262626" transform="translate(469.576 175.495438) scale(0.1 -0.1)">
      <defs>
       <path id="DejaVuSans-44" d="M 1259 4147 
L 1259 519 
L 2022 519 
Q 2988 519 3436 956 
Q 3884 1394 3884 2338 
Q 3884 3275 3436 3711 
Q 2988 4147 2022 4147 
L 1259 4147 
z
M 628 4666 
L 1925 4666 
Q 3281 4666 3915 4102 
Q 4550 3538 4550 2338 
Q 4550 1131 3912 565 
Q 3275 0 1925 0 
L 628 0 
L 628 4666 
z
" transform="scale(0.015625)"/>
       <path id="DejaVuSans-6b" d="M 581 4863 
L 1159 4863 
L 1159 1991 
L 2875 3500 
L 3609 3500 
L 1753 1863 
L 3688 0 
L 2938 0 
L 1159 1709 
L 1159 0 
L 581 0 
L 581 4863 
z
" transform="scale(0.015625)"/>
      </defs>
      <use xlink:href="#DejaVuSans-44"/>
      <use xlink:href="#DejaVuSans-65" x="77.001953"/>
      <use xlink:href="#DejaVuSans-6e" x="138.525391"/>
      <use xlink:href="#DejaVuSans-6d" x="201.904297"/>
      <use xlink:href="#DejaVuSans-61" x="299.316406"/>
      <use xlink:href="#DejaVuSans-72" x="360.595703"/>
      <use xlink:href="#DejaVuSans-6b" x="401.708984"/>
     </g>
    </g>
    <g id="line2d_101">
     <path d="M 441.576 186.673563 
L 451.576 186.673563 
L 461.576 186.673563 
" style="fill: none; stroke: #9da231; stroke-width: 1.5; stroke-linecap: round"/>
    </g>
    <g id="text_26">
     <!-- Estonia -->
     <g style="fill: #262626" transform="translate(469.576 190.173563) scale(0.1 -0.1)">
      <use xlink:href="#DejaVuSans-45"/>
      <use xlink:href="#DejaVuSans-73" x="63.183594"/>
      <use xlink:href="#DejaVuSans-74" x="115.283203"/>
      <use xlink:href="#DejaVuSans-6f" x="154.492188"/>
      <use xlink:href="#DejaVuSans-6e" x="215.673828"/>
      <use xlink:href="#DejaVuSans-69" x="279.052734"/>
      <use xlink:href="#DejaVuSans-61" x="306.835938"/>
     </g>
    </g>
    <g id="line2d_102">
     <path d="M 441.576 201.351687 
L 451.576 201.351687 
L 461.576 201.351687 
" style="fill: none; stroke: #90a531; stroke-width: 1.5; stroke-linecap: round"/>
    </g>
    <g id="text_27">
     <!-- Finland -->
     <g style="fill: #262626" transform="translate(469.576 204.851687) scale(0.1 -0.1)">
      <defs>
       <path id="DejaVuSans-46" d="M 628 4666 
L 3309 4666 
L 3309 4134 
L 1259 4134 
L 1259 2759 
L 3109 2759 
L 3109 2228 
L 1259 2228 
L 1259 0 
L 628 0 
L 628 4666 
z
" transform="scale(0.015625)"/>
      </defs>
      <use xlink:href="#DejaVuSans-46"/>
      <use xlink:href="#DejaVuSans-69" x="50.269531"/>
      <use xlink:href="#DejaVuSans-6e" x="78.052734"/>
      <use xlink:href="#DejaVuSans-6c" x="141.431641"/>
      <use xlink:href="#DejaVuSans-61" x="169.214844"/>
      <use xlink:href="#DejaVuSans-6e" x="230.494141"/>
      <use xlink:href="#DejaVuSans-64" x="293.873047"/>
     </g>
    </g>
    <g id="line2d_103">
     <path d="M 441.576 216.029812 
L 451.576 216.029812 
L 461.576 216.029812 
" style="fill: none; stroke: #80a931; stroke-width: 1.5; stroke-linecap: round"/>
    </g>
    <g id="text_28">
     <!-- France -->
     <g style="fill: #262626" transform="translate(469.576 219.529812) scale(0.1 -0.1)">
      <use xlink:href="#DejaVuSans-46"/>
      <use xlink:href="#DejaVuSans-72" x="50.269531"/>
      <use xlink:href="#DejaVuSans-61" x="91.382812"/>
      <use xlink:href="#DejaVuSans-6e" x="152.662109"/>
      <use xlink:href="#DejaVuSans-63" x="216.041016"/>
      <use xlink:href="#DejaVuSans-65" x="271.021484"/>
     </g>
    </g>
    <g id="line2d_104">
     <path d="M 441.576 230.707937 
L 451.576 230.707937 
L 461.576 230.707937 
" style="fill: none; stroke: #68ad31; stroke-width: 1.5; stroke-linecap: round"/>
    </g>
    <g id="text_29">
     <!-- Germany -->
     <g style="fill: #262626" transform="translate(469.576 234.207937) scale(0.1 -0.1)">
      <defs>
       <path id="DejaVuSans-47" d="M 3809 666 
L 3809 1919 
L 2778 1919 
L 2778 2438 
L 4434 2438 
L 4434 434 
Q 4069 175 3628 42 
Q 3188 -91 2688 -91 
Q 1594 -91 976 548 
Q 359 1188 359 2328 
Q 359 3472 976 4111 
Q 1594 4750 2688 4750 
Q 3144 4750 3555 4637 
Q 3966 4525 4313 4306 
L 4313 3634 
Q 3963 3931 3569 4081 
Q 3175 4231 2741 4231 
Q 1884 4231 1454 3753 
Q 1025 3275 1025 2328 
Q 1025 1384 1454 906 
Q 1884 428 2741 428 
Q 3075 428 3337 486 
Q 3600 544 3809 666 
z
" transform="scale(0.015625)"/>
       <path id="DejaVuSans-79" d="M 2059 -325 
Q 1816 -950 1584 -1140 
Q 1353 -1331 966 -1331 
L 506 -1331 
L 506 -850 
L 844 -850 
Q 1081 -850 1212 -737 
Q 1344 -625 1503 -206 
L 1606 56 
L 191 3500 
L 800 3500 
L 1894 763 
L 2988 3500 
L 3597 3500 
L 2059 -325 
z
" transform="scale(0.015625)"/>
      </defs>
      <use xlink:href="#DejaVuSans-47"/>
      <use xlink:href="#DejaVuSans-65" x="77.490234"/>
      <use xlink:href="#DejaVuSans-72" x="139.013672"/>
      <use xlink:href="#DejaVuSans-6d" x="178.376953"/>
      <use xlink:href="#DejaVuSans-61" x="275.789062"/>
      <use xlink:href="#DejaVuSans-6e" x="337.068359"/>
      <use xlink:href="#DejaVuSans-79" x="400.447266"/>
     </g>
    </g>
    <g id="line2d_105">
     <path d="M 441.576 245.386062 
L 451.576 245.386062 
L 461.576 245.386062 
" style="fill: none; stroke: #3cb231; stroke-width: 1.5; stroke-linecap: round"/>
    </g>
    <g id="text_30">
     <!-- Greece -->
     <g style="fill: #262626" transform="translate(469.576 248.886062) scale(0.1 -0.1)">
      <use xlink:href="#DejaVuSans-47"/>
      <use xlink:href="#DejaVuSans-72" x="77.490234"/>
      <use xlink:href="#DejaVuSans-65" x="116.353516"/>
      <use xlink:href="#DejaVuSans-65" x="177.876953"/>
      <use xlink:href="#DejaVuSans-63" x="239.400391"/>
      <use xlink:href="#DejaVuSans-65" x="294.380859"/>
     </g>
    </g>
    <g id="line2d_106">
     <path d="M 441.576 260.064188 
L 451.576 260.064188 
L 461.576 260.064188 
" style="fill: none; stroke: #32b25e; stroke-width: 1.5; stroke-linecap: round"/>
    </g>
    <g id="text_31">
     <!-- Hungary -->
     <g style="fill: #262626" transform="translate(469.576 263.564188) scale(0.1 -0.1)">
      <defs>
       <path id="DejaVuSans-48" d="M 628 4666 
L 1259 4666 
L 1259 2753 
L 3553 2753 
L 3553 4666 
L 4184 4666 
L 4184 0 
L 3553 0 
L 3553 2222 
L 1259 2222 
L 1259 0 
L 628 0 
L 628 4666 
z
" transform="scale(0.015625)"/>
      </defs>
      <use xlink:href="#DejaVuSans-48"/>
      <use xlink:href="#DejaVuSans-75" x="75.195312"/>
      <use xlink:href="#DejaVuSans-6e" x="138.574219"/>
      <use xlink:href="#DejaVuSans-67" x="201.953125"/>
      <use xlink:href="#DejaVuSans-61" x="265.429688"/>
      <use xlink:href="#DejaVuSans-72" x="326.708984"/>
      <use xlink:href="#DejaVuSans-79" x="367.822266"/>
     </g>
    </g>
    <g id="line2d_107">
     <path d="M 441.576 274.742312 
L 451.576 274.742312 
L 461.576 274.742312 
" style="fill: none; stroke: #33b077; stroke-width: 1.5; stroke-linecap: round"/>
    </g>
    <g id="text_32">
     <!-- Iceland -->
     <g style="fill: #262626" transform="translate(469.576 278.242312) scale(0.1 -0.1)">
      <defs>
       <path id="DejaVuSans-49" d="M 628 4666 
L 1259 4666 
L 1259 0 
L 628 0 
L 628 4666 
z
" transform="scale(0.015625)"/>
      </defs>
      <use xlink:href="#DejaVuSans-49"/>
      <use xlink:href="#DejaVuSans-63" x="29.492188"/>
      <use xlink:href="#DejaVuSans-65" x="84.472656"/>
      <use xlink:href="#DejaVuSans-6c" x="145.996094"/>
      <use xlink:href="#DejaVuSans-61" x="173.779297"/>
      <use xlink:href="#DejaVuSans-6e" x="235.058594"/>
      <use xlink:href="#DejaVuSans-64" x="298.4375"/>
     </g>
    </g>
    <g id="line2d_108">
     <path d="M 441.576 289.420437 
L 451.576 289.420437 
L 461.576 289.420437 
" style="fill: none; stroke: #34af86; stroke-width: 1.5; stroke-linecap: round"/>
    </g>
    <g id="text_33">
     <!-- Ireland -->
     <g style="fill: #262626" transform="translate(469.576 292.920437) scale(0.1 -0.1)">
      <use xlink:href="#DejaVuSans-49"/>
      <use xlink:href="#DejaVuSans-72" x="29.492188"/>
      <use xlink:href="#DejaVuSans-65" x="68.355469"/>
      <use xlink:href="#DejaVuSans-6c" x="129.878906"/>
      <use xlink:href="#DejaVuSans-61" x="157.662109"/>
      <use xlink:href="#DejaVuSans-6e" x="218.941406"/>
      <use xlink:href="#DejaVuSans-64" x="282.320312"/>
     </g>
    </g>
    <g id="line2d_109">
     <path d="M 441.576 304.098562 
L 451.576 304.098562 
L 461.576 304.098562 
" style="fill: none; stroke: #35ae92; stroke-width: 1.5; stroke-linecap: round"/>
    </g>
    <g id="text_34">
     <!-- Israel -->
     <g style="fill: #262626" transform="translate(469.576 307.598562) scale(0.1 -0.1)">
      <use xlink:href="#DejaVuSans-49"/>
      <use xlink:href="#DejaVuSans-73" x="29.492188"/>
      <use xlink:href="#DejaVuSans-72" x="81.591797"/>
      <use xlink:href="#DejaVuSans-61" x="122.705078"/>
      <use xlink:href="#DejaVuSans-65" x="183.984375"/>
      <use xlink:href="#DejaVuSans-6c" x="245.507812"/>
     </g>
    </g>
    <g id="line2d_110">
     <path d="M 441.576 318.776687 
L 451.576 318.776687 
L 461.576 318.776687 
" style="fill: none; stroke: #35ae9c; stroke-width: 1.5; stroke-linecap: round"/>
    </g>
    <g id="text_35">
     <!-- Italy -->
     <g style="fill: #262626" transform="translate(469.576 322.276687) scale(0.1 -0.1)">
      <use xlink:href="#DejaVuSans-49"/>
      <use xlink:href="#DejaVuSans-74" x="29.492188"/>
      <use xlink:href="#DejaVuSans-61" x="68.701172"/>
      <use xlink:href="#DejaVuSans-6c" x="129.980469"/>
      <use xlink:href="#DejaVuSans-79" x="157.763672"/>
     </g>
    </g>
    <g id="line2d_111">
     <path style="fill: none; stroke: #36ada4; stroke-width: 1.5; stroke-linecap: round"/>
    </g>
    <g id="text_36">
     <!-- Japan -->
     <g style="fill: #262626" transform="translate(593.715063 58.070438) scale(0.1 -0.1)">
      <defs>
       <path id="DejaVuSans-4a" d="M 628 4666 
L 1259 4666 
L 1259 325 
Q 1259 -519 939 -900 
Q 619 -1281 -91 -1281 
L -331 -1281 
L -331 -750 
L -134 -750 
Q 284 -750 456 -515 
Q 628 -281 628 325 
L 628 4666 
z
" transform="scale(0.015625)"/>
      </defs>
      <use xlink:href="#DejaVuSans-4a"/>
      <use xlink:href="#DejaVuSans-61" x="29.492188"/>
      <use xlink:href="#DejaVuSans-70" x="90.771484"/>
      <use xlink:href="#DejaVuSans-61" x="154.248047"/>
      <use xlink:href="#DejaVuSans-6e" x="215.527344"/>
     </g>
    </g>
    <g id="line2d_112">
     <path style="fill: none; stroke: #36acac; stroke-width: 1.5; stroke-linecap: round"/>
    </g>
    <g id="text_37">
     <!-- Korea -->
     <g style="fill: #262626" transform="translate(593.715063 72.748563) scale(0.1 -0.1)">
      <defs>
       <path id="DejaVuSans-4b" d="M 628 4666 
L 1259 4666 
L 1259 2694 
L 3353 4666 
L 4166 4666 
L 1850 2491 
L 4331 0 
L 3500 0 
L 1259 2247 
L 1259 0 
L 628 0 
L 628 4666 
z
" transform="scale(0.015625)"/>
      </defs>
      <use xlink:href="#DejaVuSans-4b"/>
      <use xlink:href="#DejaVuSans-6f" x="60.576172"/>
      <use xlink:href="#DejaVuSans-72" x="121.757812"/>
      <use xlink:href="#DejaVuSans-65" x="160.621094"/>
      <use xlink:href="#DejaVuSans-61" x="222.144531"/>
     </g>
    </g>
    <g id="line2d_113">
     <path style="fill: none; stroke: #37abb4; stroke-width: 1.5; stroke-linecap: round"/>
    </g>
    <g id="text_38">
     <!-- Latvia -->
     <g style="fill: #262626" transform="translate(593.715063 87.426688) scale(0.1 -0.1)">
      <defs>
       <path id="DejaVuSans-4c" d="M 628 4666 
L 1259 4666 
L 1259 531 
L 3531 531 
L 3531 0 
L 628 0 
L 628 4666 
z
" transform="scale(0.015625)"/>
       <path id="DejaVuSans-76" d="M 191 3500 
L 800 3500 
L 1894 563 
L 2988 3500 
L 3597 3500 
L 2284 0 
L 1503 0 
L 191 3500 
z
" transform="scale(0.015625)"/>
      </defs>
      <use xlink:href="#DejaVuSans-4c"/>
      <use xlink:href="#DejaVuSans-61" x="55.712891"/>
      <use xlink:href="#DejaVuSans-74" x="116.992188"/>
      <use xlink:href="#DejaVuSans-76" x="156.201172"/>
      <use xlink:href="#DejaVuSans-69" x="215.380859"/>
      <use xlink:href="#DejaVuSans-61" x="243.164062"/>
     </g>
    </g>
    <g id="line2d_114">
     <path style="fill: none; stroke: #37aabd; stroke-width: 1.5; stroke-linecap: round"/>
    </g>
    <g id="text_39">
     <!-- Lithuania -->
     <g style="fill: #262626" transform="translate(593.715063 102.104813) scale(0.1 -0.1)">
      <use xlink:href="#DejaVuSans-4c"/>
      <use xlink:href="#DejaVuSans-69" x="55.712891"/>
      <use xlink:href="#DejaVuSans-74" x="83.496094"/>
      <use xlink:href="#DejaVuSans-68" x="122.705078"/>
      <use xlink:href="#DejaVuSans-75" x="186.083984"/>
      <use xlink:href="#DejaVuSans-61" x="249.462891"/>
      <use xlink:href="#DejaVuSans-6e" x="310.742188"/>
      <use xlink:href="#DejaVuSans-69" x="374.121094"/>
      <use xlink:href="#DejaVuSans-61" x="401.904297"/>
     </g>
    </g>
    <g id="line2d_115">
     <path style="fill: none; stroke: #38a9c7; stroke-width: 1.5; stroke-linecap: round"/>
    </g>
    <g id="text_40">
     <!-- Luxembourg -->
     <g style="fill: #262626" transform="translate(593.715063 116.782938) scale(0.1 -0.1)">
      <defs>
       <path id="DejaVuSans-78" d="M 3513 3500 
L 2247 1797 
L 3578 0 
L 2900 0 
L 1881 1375 
L 863 0 
L 184 0 
L 1544 1831 
L 300 3500 
L 978 3500 
L 1906 2253 
L 2834 3500 
L 3513 3500 
z
" transform="scale(0.015625)"/>
      </defs>
      <use xlink:href="#DejaVuSans-4c"/>
      <use xlink:href="#DejaVuSans-75" x="53.962891"/>
      <use xlink:href="#DejaVuSans-78" x="117.341797"/>
      <use xlink:href="#DejaVuSans-65" x="173.396484"/>
      <use xlink:href="#DejaVuSans-6d" x="234.919922"/>
      <use xlink:href="#DejaVuSans-62" x="332.332031"/>
      <use xlink:href="#DejaVuSans-6f" x="395.808594"/>
      <use xlink:href="#DejaVuSans-75" x="456.990234"/>
      <use xlink:href="#DejaVuSans-72" x="520.369141"/>
      <use xlink:href="#DejaVuSans-67" x="559.732422"/>
     </g>
    </g>
    <g id="line2d_116">
     <path style="fill: none; stroke: #39a7d4; stroke-width: 1.5; stroke-linecap: round"/>
    </g>
    <g id="text_41">
     <!-- Mexico -->
     <g style="fill: #262626" transform="translate(593.715063 131.461063) scale(0.1 -0.1)">
      <use xlink:href="#DejaVuSans-4d"/>
      <use xlink:href="#DejaVuSans-65" x="86.279297"/>
      <use xlink:href="#DejaVuSans-78" x="146.052734"/>
      <use xlink:href="#DejaVuSans-69" x="205.232422"/>
      <use xlink:href="#DejaVuSans-63" x="233.015625"/>
      <use xlink:href="#DejaVuSans-6f" x="287.996094"/>
     </g>
    </g>
    <g id="line2d_117">
     <path style="fill: none; stroke: #3ba4e5; stroke-width: 1.5; stroke-linecap: round"/>
    </g>
    <g id="text_42">
     <!-- Netherlands -->
     <g style="fill: #262626" transform="translate(593.715063 146.139188) scale(0.1 -0.1)">
      <defs>
       <path id="DejaVuSans-4e" d="M 628 4666 
L 1478 4666 
L 3547 763 
L 3547 4666 
L 4159 4666 
L 4159 0 
L 3309 0 
L 1241 3903 
L 1241 0 
L 628 0 
L 628 4666 
z
" transform="scale(0.015625)"/>
      </defs>
      <use xlink:href="#DejaVuSans-4e"/>
      <use xlink:href="#DejaVuSans-65" x="74.804688"/>
      <use xlink:href="#DejaVuSans-74" x="136.328125"/>
      <use xlink:href="#DejaVuSans-68" x="175.537109"/>
      <use xlink:href="#DejaVuSans-65" x="238.916016"/>
      <use xlink:href="#DejaVuSans-72" x="300.439453"/>
      <use xlink:href="#DejaVuSans-6c" x="341.552734"/>
      <use xlink:href="#DejaVuSans-61" x="369.335938"/>
      <use xlink:href="#DejaVuSans-6e" x="430.615234"/>
      <use xlink:href="#DejaVuSans-64" x="493.994141"/>
      <use xlink:href="#DejaVuSans-73" x="557.470703"/>
     </g>
    </g>
    <g id="line2d_118">
     <path style="fill: none; stroke: #539ff4; stroke-width: 1.5; stroke-linecap: round"/>
    </g>
    <g id="text_43">
     <!-- New Zealand -->
     <g style="fill: #262626" transform="translate(593.715063 160.817313) scale(0.1 -0.1)">
      <defs>
       <path id="DejaVuSans-77" d="M 269 3500 
L 844 3500 
L 1563 769 
L 2278 3500 
L 2956 3500 
L 3675 769 
L 4391 3500 
L 4966 3500 
L 4050 0 
L 3372 0 
L 2619 2869 
L 1863 0 
L 1184 0 
L 269 3500 
z
" transform="scale(0.015625)"/>
       <path id="DejaVuSans-5a" d="M 359 4666 
L 4025 4666 
L 4025 4184 
L 1075 531 
L 4097 531 
L 4097 0 
L 288 0 
L 288 481 
L 3238 4134 
L 359 4134 
L 359 4666 
z
" transform="scale(0.015625)"/>
      </defs>
      <use xlink:href="#DejaVuSans-4e"/>
      <use xlink:href="#DejaVuSans-65" x="74.804688"/>
      <use xlink:href="#DejaVuSans-77" x="136.328125"/>
      <use xlink:href="#DejaVuSans-20" x="218.115234"/>
      <use xlink:href="#DejaVuSans-5a" x="249.902344"/>
      <use xlink:href="#DejaVuSans-65" x="318.408203"/>
      <use xlink:href="#DejaVuSans-61" x="379.931641"/>
      <use xlink:href="#DejaVuSans-6c" x="441.210938"/>
      <use xlink:href="#DejaVuSans-61" x="468.994141"/>
      <use xlink:href="#DejaVuSans-6e" x="530.273438"/>
      <use xlink:href="#DejaVuSans-64" x="593.652344"/>
     </g>
    </g>
    <g id="line2d_119">
     <path style="fill: none; stroke: #7c98f4; stroke-width: 1.5; stroke-linecap: round"/>
    </g>
    <g id="text_44">
     <!-- Norway -->
     <g style="fill: #262626" transform="translate(593.715063 175.495438) scale(0.1 -0.1)">
      <use xlink:href="#DejaVuSans-4e"/>
      <use xlink:href="#DejaVuSans-6f" x="74.804688"/>
      <use xlink:href="#DejaVuSans-72" x="135.986328"/>
      <use xlink:href="#DejaVuSans-77" x="177.099609"/>
      <use xlink:href="#DejaVuSans-61" x="258.886719"/>
      <use xlink:href="#DejaVuSans-79" x="320.166016"/>
     </g>
    </g>
    <g id="line2d_120">
     <path style="fill: none; stroke: #9890f4; stroke-width: 1.5; stroke-linecap: round"/>
    </g>
    <g id="text_45">
     <!-- Poland -->
     <g style="fill: #262626" transform="translate(593.715063 190.173563) scale(0.1 -0.1)">
      <defs>
       <path id="DejaVuSans-50" d="M 1259 4147 
L 1259 2394 
L 2053 2394 
Q 2494 2394 2734 2622 
Q 2975 2850 2975 3272 
Q 2975 3691 2734 3919 
Q 2494 4147 2053 4147 
L 1259 4147 
z
M 628 4666 
L 2053 4666 
Q 2838 4666 3239 4311 
Q 3641 3956 3641 3272 
Q 3641 2581 3239 2228 
Q 2838 1875 2053 1875 
L 1259 1875 
L 1259 0 
L 628 0 
L 628 4666 
z
" transform="scale(0.015625)"/>
      </defs>
      <use xlink:href="#DejaVuSans-50"/>
      <use xlink:href="#DejaVuSans-6f" x="56.677734"/>
      <use xlink:href="#DejaVuSans-6c" x="117.859375"/>
      <use xlink:href="#DejaVuSans-61" x="145.642578"/>
      <use xlink:href="#DejaVuSans-6e" x="206.921875"/>
      <use xlink:href="#DejaVuSans-64" x="270.300781"/>
     </g>
    </g>
    <g id="line2d_121">
     <path style="fill: none; stroke: #af88f4; stroke-width: 1.5; stroke-linecap: round"/>
    </g>
    <g id="text_46">
     <!-- Portugal -->
     <g style="fill: #262626" transform="translate(593.715063 204.851687) scale(0.1 -0.1)">
      <use xlink:href="#DejaVuSans-50"/>
      <use xlink:href="#DejaVuSans-6f" x="56.677734"/>
      <use xlink:href="#DejaVuSans-72" x="117.859375"/>
      <use xlink:href="#DejaVuSans-74" x="158.972656"/>
      <use xlink:href="#DejaVuSans-75" x="198.181641"/>
      <use xlink:href="#DejaVuSans-67" x="261.560547"/>
      <use xlink:href="#DejaVuSans-61" x="325.037109"/>
      <use xlink:href="#DejaVuSans-6c" x="386.316406"/>
     </g>
    </g>
    <g id="line2d_122">
     <path style="fill: none; stroke: #c47ef4; stroke-width: 1.5; stroke-linecap: round"/>
    </g>
    <g id="text_47">
     <!-- Slovak Republic -->
     <g style="fill: #262626" transform="translate(593.715063 219.529812) scale(0.1 -0.1)">
      <defs>
       <path id="DejaVuSans-53" d="M 3425 4513 
L 3425 3897 
Q 3066 4069 2747 4153 
Q 2428 4238 2131 4238 
Q 1616 4238 1336 4038 
Q 1056 3838 1056 3469 
Q 1056 3159 1242 3001 
Q 1428 2844 1947 2747 
L 2328 2669 
Q 3034 2534 3370 2195 
Q 3706 1856 3706 1288 
Q 3706 609 3251 259 
Q 2797 -91 1919 -91 
Q 1588 -91 1214 -16 
Q 841 59 441 206 
L 441 856 
Q 825 641 1194 531 
Q 1563 422 1919 422 
Q 2459 422 2753 634 
Q 3047 847 3047 1241 
Q 3047 1584 2836 1778 
Q 2625 1972 2144 2069 
L 1759 2144 
Q 1053 2284 737 2584 
Q 422 2884 422 3419 
Q 422 4038 858 4394 
Q 1294 4750 2059 4750 
Q 2388 4750 2728 4690 
Q 3069 4631 3425 4513 
z
" transform="scale(0.015625)"/>
      </defs>
      <use xlink:href="#DejaVuSans-53"/>
      <use xlink:href="#DejaVuSans-6c" x="63.476562"/>
      <use xlink:href="#DejaVuSans-6f" x="91.259766"/>
      <use xlink:href="#DejaVuSans-76" x="152.441406"/>
      <use xlink:href="#DejaVuSans-61" x="211.621094"/>
      <use xlink:href="#DejaVuSans-6b" x="272.900391"/>
      <use xlink:href="#DejaVuSans-20" x="330.810547"/>
      <use xlink:href="#DejaVuSans-52" x="362.597656"/>
      <use xlink:href="#DejaVuSans-65" x="427.580078"/>
      <use xlink:href="#DejaVuSans-70" x="489.103516"/>
      <use xlink:href="#DejaVuSans-75" x="552.580078"/>
      <use xlink:href="#DejaVuSans-62" x="615.958984"/>
      <use xlink:href="#DejaVuSans-6c" x="679.435547"/>
      <use xlink:href="#DejaVuSans-69" x="707.21875"/>
      <use xlink:href="#DejaVuSans-63" x="735.001953"/>
     </g>
    </g>
    <g id="line2d_123">
     <path style="fill: none; stroke: #d972f4; stroke-width: 1.5; stroke-linecap: round"/>
    </g>
    <g id="text_48">
     <!-- Slovenia -->
     <g style="fill: #262626" transform="translate(593.715063 234.207937) scale(0.1 -0.1)">
      <use xlink:href="#DejaVuSans-53"/>
      <use xlink:href="#DejaVuSans-6c" x="63.476562"/>
      <use xlink:href="#DejaVuSans-6f" x="91.259766"/>
      <use xlink:href="#DejaVuSans-76" x="152.441406"/>
      <use xlink:href="#DejaVuSans-65" x="211.621094"/>
      <use xlink:href="#DejaVuSans-6e" x="273.144531"/>
      <use xlink:href="#DejaVuSans-69" x="336.523438"/>
      <use xlink:href="#DejaVuSans-61" x="364.306641"/>
     </g>
    </g>
    <g id="line2d_124">
     <path style="fill: none; stroke: #ef5ff4; stroke-width: 1.5; stroke-linecap: round"/>
    </g>
    <g id="text_49">
     <!-- Spain -->
     <g style="fill: #262626" transform="translate(593.715063 248.886062) scale(0.1 -0.1)">
      <use xlink:href="#DejaVuSans-53"/>
      <use xlink:href="#DejaVuSans-70" x="63.476562"/>
      <use xlink:href="#DejaVuSans-61" x="126.953125"/>
      <use xlink:href="#DejaVuSans-69" x="188.232422"/>
      <use xlink:href="#DejaVuSans-6e" x="216.015625"/>
     </g>
    </g>
    <g id="line2d_125">
     <path style="fill: none; stroke: #f560e2; stroke-width: 1.5; stroke-linecap: round"/>
    </g>
    <g id="text_50">
     <!-- Sweden -->
     <g style="fill: #262626" transform="translate(593.715063 263.564188) scale(0.1 -0.1)">
      <use xlink:href="#DejaVuSans-53"/>
      <use xlink:href="#DejaVuSans-77" x="63.476562"/>
      <use xlink:href="#DejaVuSans-65" x="145.263672"/>
      <use xlink:href="#DejaVuSans-64" x="206.787109"/>
      <use xlink:href="#DejaVuSans-65" x="270.263672"/>
      <use xlink:href="#DejaVuSans-6e" x="331.787109"/>
     </g>
    </g>
    <g id="line2d_126">
     <path style="fill: none; stroke: #f565d0; stroke-width: 1.5; stroke-linecap: round"/>
    </g>
    <g id="text_51">
     <!-- Switzerland -->
     <g style="fill: #262626" transform="translate(593.715063 278.242312) scale(0.1 -0.1)">
      <use xlink:href="#DejaVuSans-53"/>
      <use xlink:href="#DejaVuSans-77" x="63.476562"/>
      <use xlink:href="#DejaVuSans-69" x="145.263672"/>
      <use xlink:href="#DejaVuSans-74" x="173.046875"/>
      <use xlink:href="#DejaVuSans-7a" x="212.255859"/>
      <use xlink:href="#DejaVuSans-65" x="264.746094"/>
      <use xlink:href="#DejaVuSans-72" x="326.269531"/>
      <use xlink:href="#DejaVuSans-6c" x="367.382812"/>
      <use xlink:href="#DejaVuSans-61" x="395.166016"/>
      <use xlink:href="#DejaVuSans-6e" x="456.445312"/>
      <use xlink:href="#DejaVuSans-64" x="519.824219"/>
     </g>
    </g>
    <g id="line2d_127">
     <path style="fill: none; stroke: #f668bf; stroke-width: 1.5; stroke-linecap: round"/>
    </g>
    <g id="text_52">
     <!-- Trkiye -->
     <g style="fill: #262626" transform="translate(593.715063 292.920437) scale(0.1 -0.1)">
      <defs>
       <path id="DejaVuSans-fc" d="M 544 1381 
L 544 3500 
L 1119 3500 
L 1119 1403 
Q 1119 906 1312 657 
Q 1506 409 1894 409 
Q 2359 409 2629 706 
Q 2900 1003 2900 1516 
L 2900 3500 
L 3475 3500 
L 3475 0 
L 2900 0 
L 2900 538 
Q 2691 219 2414 64 
Q 2138 -91 1772 -91 
Q 1169 -91 856 284 
Q 544 659 544 1381 
z
M 1991 3584 
L 1991 3584 
z
M 2278 4850 
L 2912 4850 
L 2912 4219 
L 2278 4219 
L 2278 4850 
z
M 1056 4850 
L 1690 4850 
L 1690 4219 
L 1056 4219 
L 1056 4850 
z
" transform="scale(0.015625)"/>
      </defs>
      <use xlink:href="#DejaVuSans-54"/>
      <use xlink:href="#DejaVuSans-fc" x="47.333984"/>
      <use xlink:href="#DejaVuSans-72" x="110.712891"/>
      <use xlink:href="#DejaVuSans-6b" x="151.826172"/>
      <use xlink:href="#DejaVuSans-69" x="209.736328"/>
      <use xlink:href="#DejaVuSans-79" x="237.519531"/>
      <use xlink:href="#DejaVuSans-65" x="296.699219"/>
     </g>
    </g>
    <g id="line2d_128">
     <path style="fill: none; stroke: #f66baf; stroke-width: 1.5; stroke-linecap: round"/>
    </g>
    <g id="text_53">
     <!-- United Kingdom -->
     <g style="fill: #262626" transform="translate(593.715063 307.598562) scale(0.1 -0.1)">
      <defs>
       <path id="DejaVuSans-55" d="M 556 4666 
L 1191 4666 
L 1191 1831 
Q 1191 1081 1462 751 
Q 1734 422 2344 422 
Q 2950 422 3222 751 
Q 3494 1081 3494 1831 
L 3494 4666 
L 4128 4666 
L 4128 1753 
Q 4128 841 3676 375 
Q 3225 -91 2344 -91 
Q 1459 -91 1007 375 
Q 556 841 556 1753 
L 556 4666 
z
" transform="scale(0.015625)"/>
      </defs>
      <use xlink:href="#DejaVuSans-55"/>
      <use xlink:href="#DejaVuSans-6e" x="73.193359"/>
      <use xlink:href="#DejaVuSans-69" x="136.572266"/>
      <use xlink:href="#DejaVuSans-74" x="164.355469"/>
      <use xlink:href="#DejaVuSans-65" x="203.564453"/>
      <use xlink:href="#DejaVuSans-64" x="265.087891"/>
      <use xlink:href="#DejaVuSans-20" x="328.564453"/>
      <use xlink:href="#DejaVuSans-4b" x="360.351562"/>
      <use xlink:href="#DejaVuSans-69" x="425.927734"/>
      <use xlink:href="#DejaVuSans-6e" x="453.710938"/>
      <use xlink:href="#DejaVuSans-67" x="517.089844"/>
      <use xlink:href="#DejaVuSans-64" x="580.566406"/>
      <use xlink:href="#DejaVuSans-6f" x="644.042969"/>
      <use xlink:href="#DejaVuSans-6d" x="705.224609"/>
     </g>
    </g>
    <g id="line2d_129">
     <path style="fill: none; stroke: #f66e9e; stroke-width: 1.5; stroke-linecap: round"/>
    </g>
    <g id="text_54">
     <!-- United States -->
     <g style="fill: #262626" transform="translate(593.715063 322.276687) scale(0.1 -0.1)">
      <use xlink:href="#DejaVuSans-55"/>
      <use xlink:href="#DejaVuSans-6e" x="73.193359"/>
      <use xlink:href="#DejaVuSans-69" x="136.572266"/>
      <use xlink:href="#DejaVuSans-74" x="164.355469"/>
      <use xlink:href="#DejaVuSans-65" x="203.564453"/>
      <use xlink:href="#DejaVuSans-64" x="265.087891"/>
      <use xlink:href="#DejaVuSans-20" x="328.564453"/>
      <use xlink:href="#DejaVuSans-53" x="360.351562"/>
      <use xlink:href="#DejaVuSans-74" x="423.828125"/>
      <use xlink:href="#DejaVuSans-61" x="463.037109"/>
      <use xlink:href="#DejaVuSans-74" x="524.316406"/>
      <use xlink:href="#DejaVuSans-65" x="563.525391"/>
      <use xlink:href="#DejaVuSans-73" x="625.048828"/>
     </g>
    </g>
   </g>
  </g>
 </g>
 <defs>
  <clipPath id="p09ad3f72be">
   <rect x="57.6" y="41.472" width="357.12" height="266.112"/>
  </clipPath>
 </defs>
</svg>
